<svg xmlns="http://www.w3.org/2000/svg" width="54" height="54" viewBox="0 0 54 54">
  <g id="Group_12107" data-name="Group 12107" transform="translate(-302 -11)">
    <g id="Group_8531" data-name="Group 8531" transform="translate(314.938 18.632)">
      <g id="Group_5821" data-name="Group 5821" transform="translate(0)">
        <path id="Path_50423" data-name="Path 50423" d="M2023.14,1345.117l-8.183-8.184-8.184,8.184-5.81-5.81,8.184-8.183-8.184-8.184,5.81-5.81,8.184,8.184,8.183-8.184,5.81,5.81-8.183,8.184,8.183,8.183Zm-21.245-5.81,4.878,4.878,8.184-8.183,8.183,8.183,4.878-4.878-8.184-8.183,8.184-8.184-4.878-4.878-8.183,8.184-8.184-8.184-4.878,4.878,8.184,8.184Z" transform="translate(-2000.963 -1317.13)" fill="#3984ba"/>
      </g>
      <g id="Group_5822" data-name="Group 5822" transform="translate(25.563 4.218)">
        <rect id="Rectangle_594" data-name="Rectangle 594" width="0.663" height="3.249" transform="translate(0)" fill="#3984ba"/>
      </g>
      <g id="Group_5823" data-name="Group 5823" transform="translate(25.563 20.52)">
        <rect id="Rectangle_595" data-name="Rectangle 595" width="0.663" height="3.285" transform="translate(0)" fill="#3984ba"/>
      </g>
      <g id="Group_5824" data-name="Group 5824" transform="translate(23.689 2.344)">
        <rect id="Rectangle_596" data-name="Rectangle 596" width="0.663" height="6.998" transform="translate(0)" fill="#3984ba"/>
      </g>
      <g id="Group_5825" data-name="Group 5825" transform="translate(23.689 18.646)">
        <rect id="Rectangle_597" data-name="Rectangle 597" width="0.663" height="7.034" transform="translate(0)" fill="#3984ba"/>
      </g>
      <g id="Group_5826" data-name="Group 5826" transform="translate(21.845 0.469)">
        <rect id="Rectangle_598" data-name="Rectangle 598" width="0.663" height="10.748" transform="translate(0)" fill="#3984ba"/>
      </g>
      <g id="Group_5827" data-name="Group 5827" transform="translate(21.845 16.833)">
        <rect id="Rectangle_599" data-name="Rectangle 599" width="0.663" height="10.686" transform="translate(0)" fill="#3984ba"/>
      </g>
      <g id="Group_5828" data-name="Group 5828" transform="translate(19.981 2.343)">
        <rect id="Rectangle_600" data-name="Rectangle 600" width="0.663" height="10.748" transform="translate(0 0)" fill="#3984ba"/>
      </g>
      <g id="Group_5829" data-name="Group 5829" transform="translate(19.981 14.897)">
        <rect id="Rectangle_601" data-name="Rectangle 601" width="0.663" height="10.748" transform="translate(0)" fill="#3984ba"/>
      </g>
      <g id="Group_5830" data-name="Group 5830" transform="translate(18.117 4.218)">
        <rect id="Rectangle_602" data-name="Rectangle 602" width="0.663" height="19.552" transform="translate(0)" fill="#3984ba"/>
      </g>
      <g id="Group_5831" data-name="Group 5831" transform="translate(16.253 6.014)">
        <rect id="Rectangle_603" data-name="Rectangle 603" width="0.663" height="16.021" transform="translate(0 0)" fill="#3984ba"/>
      </g>
      <g id="Group_5832" data-name="Group 5832" transform="translate(14.389 7.889)">
        <rect id="Rectangle_604" data-name="Rectangle 604" width="0.663" height="12.209" transform="translate(0)" fill="#3984ba"/>
      </g>
      <g id="Group_5833" data-name="Group 5833" transform="translate(12.525 7.537)">
        <rect id="Rectangle_605" data-name="Rectangle 605" width="0.663" height="12.973" transform="translate(0)" fill="#3984ba"/>
      </g>
      <g id="Group_5834" data-name="Group 5834" transform="translate(10.661 5.602)">
        <rect id="Rectangle_606" data-name="Rectangle 606" width="0.663" height="16.784" transform="translate(0)" fill="#3984ba"/>
      </g>
      <g id="Group_5835" data-name="Group 5835" transform="translate(8.798 3.726)">
        <rect id="Rectangle_607" data-name="Rectangle 607" width="0.663" height="20.456" transform="translate(0)" fill="#3984ba"/>
      </g>
      <g id="Group_5836" data-name="Group 5836" transform="translate(6.934 15.323)">
        <rect id="Rectangle_608" data-name="Rectangle 608" width="0.663" height="10.734" transform="translate(0 0)" fill="#3984ba"/>
      </g>
      <g id="Group_5837" data-name="Group 5837" transform="translate(6.934 1.852)">
        <rect id="Rectangle_609" data-name="Rectangle 609" width="0.663" height="10.826" transform="translate(0)" fill="#3984ba"/>
      </g>
      <g id="Group_5838" data-name="Group 5838" transform="translate(5.07 17.184)">
        <rect id="Rectangle_610" data-name="Rectangle 610" width="0.663" height="9.922" transform="translate(0)" fill="#3984ba"/>
      </g>
      <g id="Group_5839" data-name="Group 5839" transform="translate(5.07 0.881)">
        <rect id="Rectangle_611" data-name="Rectangle 611" width="0.663" height="9.921" transform="translate(0 0)" fill="#3984ba"/>
      </g>
      <g id="Group_5840" data-name="Group 5840" transform="translate(3.224 19.025)">
        <rect id="Rectangle_612" data-name="Rectangle 612" width="0.663" height="6.138" transform="translate(0 0)" fill="#3984ba"/>
      </g>
      <g id="Group_5841" data-name="Group 5841" transform="translate(3.224 2.756)">
        <rect id="Rectangle_613" data-name="Rectangle 613" width="0.663" height="6.172" transform="translate(0 0)" fill="#3984ba"/>
      </g>
      <g id="Group_5842" data-name="Group 5842" transform="translate(1.349 4.602)">
        <rect id="Rectangle_614" data-name="Rectangle 614" width="0.663" height="2.485" transform="translate(0 0)" fill="#3984ba"/>
      </g>
      <g id="Group_5843" data-name="Group 5843" transform="translate(1.349 20.882)">
        <rect id="Rectangle_615" data-name="Rectangle 615" width="0.663" height="2.436" transform="translate(0)" fill="#3984ba"/>
      </g>
    </g>
    <g id="Group_8532" data-name="Group 8532" transform="translate(303.566 52.824)">
      <path id="Path_50181" data-name="Path 50181" d="M2065.463,366.928a4.255,4.255,0,0,1-3.383-1.858c-.631-.731-.966-1.083-1.691-1.083s-1.06.351-1.69,1.083a4.008,4.008,0,0,1-6.766,0c-.631-.731-.966-1.083-1.69-1.083s-1.06.351-1.69,1.083a4.008,4.008,0,0,1-6.766,0c-.631-.731-.966-1.083-1.69-1.083s-1.059.351-1.69,1.083a4.008,4.008,0,0,1-6.765,0c-.631-.731-.966-1.083-1.69-1.083s-1.059.351-1.69,1.083a4.007,4.007,0,0,1-6.765,0c-.631-.731-.966-1.083-1.69-1.083v-2.235a4.254,4.254,0,0,1,3.383,1.858c.631.731.966,1.083,1.69,1.083s1.059-.351,1.689-1.082a4.008,4.008,0,0,1,6.765,0c.631.731.966,1.082,1.69,1.082s1.059-.351,1.689-1.083a4.008,4.008,0,0,1,6.766,0c.631.731.966,1.083,1.69,1.083s1.059-.351,1.69-1.083a4.009,4.009,0,0,1,6.766,0c.631.731.966,1.083,1.69,1.083s1.06-.351,1.691-1.083a4.009,4.009,0,0,1,6.766,0c.631.731.966,1.083,1.69,1.083s1.06-.352,1.691-1.083a4.256,4.256,0,0,1,3.384-1.858v2.235c-.724,0-1.06.351-1.691,1.083A4.256,4.256,0,0,1,2065.463,366.928Z" transform="translate(-2019.808 -361.752)" fill="#b4c9e5"/>
    </g>
    <rect id="Rectangle_826" data-name="Rectangle 826" width="54" height="54" transform="translate(302 11)" fill="none"/>
  </g>
</svg>
