<svg xmlns="http://www.w3.org/2000/svg" width="50" height="50" viewBox="0 0 50 50">
  <g id="Group_12142" data-name="Group 12142" transform="translate(-715 -3562)">
    <g id="live" transform="translate(726.207 3571.486)">
      <g id="Group_346" data-name="Group 346" transform="translate(5.193)">
        <path id="Path_409" data-name="Path 409" d="M245.388,23.777a1.889,1.889,0,1,1,1.889-1.889A1.891,1.891,0,0,1,245.388,23.777Z" transform="translate(-234.687 -18.741)" fill="#fff"/>
        <g id="Group_345" data-name="Group 345" transform="translate(0 5.365)">
          <g id="Group_344" data-name="Group 344" transform="translate(16.367 0.93)">
            <path id="Path_410" data-name="Path 410" d="M365.885,100.141a.944.944,0,0,0-.919-.041l-1.466.733v5.259l1.466.733a.944.944,0,0,0,1.367-.845v-5.036A.944.944,0,0,0,365.885,100.141Z" transform="translate(-363.5 -100)" fill="#fff"/>
          </g>
          <path id="Path_411" data-name="Path 411" d="M117.143,85.373A3.771,3.771,0,0,1,111.2,85.3a4.4,4.4,0,0,1-6.655-.074A2.2,2.2,0,0,0,103.5,87.1v5.036a2.206,2.206,0,0,0,2.2,2.2h10.072a2.206,2.206,0,0,0,2.2-2.2V87.1A2.2,2.2,0,0,0,117.143,85.373Z" transform="translate(-103.5 -85.224)" fill="#fff"/>
        </g>
        <path id="Path_412" data-name="Path 412" d="M136.018,5.036a2.518,2.518,0,1,1,2.518-2.518A2.521,2.521,0,0,1,136.018,5.036Z" transform="translate(-131.611)" fill="#fff"/>
      </g>
      <path id="Path_413" data-name="Path 413" d="M47.754,292H23.833A2.836,2.836,0,0,0,21,294.833v8.184a2.836,2.836,0,0,0,2.833,2.833H47.754a2.836,2.836,0,0,0,2.833-2.833v-8.184A2.836,2.836,0,0,0,47.754,292ZM28.143,303.011c-.722,0-1.214.006-1.553.006a5.524,5.524,0,0,1-.816-.019.944.944,0,0,1-.785-.931v-6.29a.944.944,0,0,1,1.889,0v5.35l1.255,0h.005a.944.944,0,0,1,.005,1.889Zm4.4-.939a.944.944,0,1,1-1.889,0v-6.3a.944.944,0,0,1,1.889,0Zm7.89-5.986-2.055,6.187,0,.007a1.087,1.087,0,0,1-1.021.736h-.007a1.087,1.087,0,0,1-1.024-.723l0-.006-2.152-6.2a.944.944,0,0,1,1.784-.619l1.377,3.968,1.31-3.945a.944.944,0,0,1,1.792.6Zm5.023,1.894a.944.944,0,0,1,0,1.889H43.945v1.259h1.708a.944.944,0,1,1,0,1.889H43a.944.944,0,0,1-.944-.944v-6.3a.944.944,0,0,1,.944-.944h2.652a.944.944,0,1,1,0,1.888H43.945v1.259Z" transform="translate(-21 -273.618)" fill="#fff"/>
    </g>
    <circle id="Ellipse_885" data-name="Ellipse 885" cx="25" cy="25" r="25" transform="translate(715 3562)" fill="none"/>
  </g>
</svg>
