<svg xmlns="http://www.w3.org/2000/svg" width="70" height="70" viewBox="0 0 70 70">
  <g id="Group_12148" data-name="Group 12148" transform="translate(-1093 -3585)">
    <g id="Ellipse_335" data-name="Ellipse 335" transform="translate(1093 3585)" fill="none" stroke="#fff" stroke-width="2">
      <circle cx="35" cy="35" r="35" stroke="none"/>
      <circle cx="35" cy="35" r="34" fill="none"/>
    </g>
    <path id="Path_49975" data-name="Path 49975" d="M35.626,5H4.822A4.828,4.828,0,0,0,0,9.822V34.148a4.828,4.828,0,0,0,4.822,4.822h7.787v3.318H8.848a1.185,1.185,0,1,0,0,2.37H31.6a1.185,1.185,0,0,0,0-2.37H27.839V38.971h7.787a4.828,4.828,0,0,0,4.822-4.822V9.822A4.828,4.828,0,0,0,35.626,5ZM4.822,7.37h30.8a2.455,2.455,0,0,1,2.452,2.452V31.544H2.37V9.822A2.455,2.455,0,0,1,4.822,7.37ZM25.469,42.289H14.979V38.971h10.49ZM35.626,36.6H4.823A2.455,2.455,0,0,1,2.37,34.148v-.234H38.079v.234A2.455,2.455,0,0,1,35.626,36.6Z" transform="translate(1107.775 3597.171)" fill="#fff"/>
    <path id="Path_49976" data-name="Path 49976" d="M114.763,71.37h2.561V81.3a1.768,1.768,0,0,0,1.766,1.766h10.253a1.767,1.767,0,0,0,1.708-1.317l1.686-6.423a1.765,1.765,0,0,0-1.708-2.214H119.694V70.185A1.185,1.185,0,0,0,118.509,69h-3.746a1.185,1.185,0,0,0,0,2.37Zm15.482,4.108-1.369,5.214h-9.182V75.478Z" transform="translate(1003.17 3538.227)" fill="#fff"/>
    <path id="Path_49977" data-name="Path 49977" d="M172.081,277h-1.9a1.185,1.185,0,1,0,0,2.37h1.9a1.185,1.185,0,1,0,0-2.37Z" transform="translate(952.127 3346.659)" fill="#fff"/>
    <path id="Path_49978" data-name="Path 49978" d="M276.081,277h-1.9a1.185,1.185,0,1,0,0,2.37h1.9a1.185,1.185,0,0,0,0-2.37Z" transform="translate(856.343 3346.659)" fill="#fff"/>
  </g>
</svg>
