<svg xmlns="http://www.w3.org/2000/svg" width="70" height="70" viewBox="0 0 70 70">
  <g id="Group_12149" data-name="Group 12149" transform="translate(10330 -4603)">
    <g id="Ellipse_335" data-name="Ellipse 335" transform="translate(-10330 4603)" fill="none" stroke="#fff" stroke-width="2">
      <circle cx="35" cy="35" r="35" stroke="none"/>
      <circle cx="35" cy="35" r="34" fill="none"/>
    </g>
    <path id="Path_49964" data-name="Path 49964" d="M41.208,0H21.269a4.183,4.183,0,0,0-4.178,4.178V16.969l-3.7-1.841c-.125-.062-.252-.121-.38-.177a6.314,6.314,0,1,0-8.711.386A8.415,8.415,0,0,0,0,22.693v4.273a4.185,4.185,0,0,0,2.848,3.961v7.433a1.33,1.33,0,0,0,1.33,1.33h8.545a1.33,1.33,0,0,0,1.33-1.33V23.42l4.257,2.128a3.648,3.648,0,0,0,4.838-1.525h4.767L22.867,37.9a1.33,1.33,0,0,0,2.5.909l5.379-14.791h.932l5.434,14.8a1.33,1.33,0,0,0,2.5-.917l-5.1-13.878h6.7a4.178,4.178,0,0,0,4.178-4.178V4.178A4.178,4.178,0,0,0,41.208,0ZM4.8,10.587a3.655,3.655,0,1,1,3.655,3.655A3.659,3.659,0,0,1,4.8,10.587ZM20.876,22.6l-.01.03a.983.983,0,0,1-1.366.539c-2.528-1.265-6.182-3.09-6.182-3.09a1.33,1.33,0,0,0-1.924,1.189V37.03H5.508V29.814a1.33,1.33,0,0,0-1.33-1.33,1.52,1.52,0,0,1-1.519-1.519V22.693A5.792,5.792,0,0,1,8.451,16.9H9.625a5.794,5.794,0,0,1,2.577.606l8.275,4.116A.8.8,0,0,1,20.876,22.6Zm21.851-2.756a1.508,1.508,0,0,1-.444,1.074,1.529,1.529,0,0,1-1.074.445H23.437l-.007-.021,3.3-6.6a1.33,1.33,0,1,0-2.378-1.189l-2.814,5.629-1.788-.89V4.178a1.52,1.52,0,0,1,1.519-1.519H41.208a1.528,1.528,0,0,1,1.075.445,1.507,1.507,0,0,1,.444,1.073Zm0,0" transform="translate(-10318 4618.699)" fill="#fff"/>
    <path id="Path_49965" data-name="Path 49965" d="M272.638,64.266H258.4a1.33,1.33,0,1,0,0,2.659h14.242a1.33,1.33,0,0,0,0-2.659Zm0,0" transform="translate(-10552.279 4560.13)" fill="#fff"/>
    <path id="Path_49966" data-name="Path 49966" d="M345.849,120.5h-7.121a1.33,1.33,0,1,0,0,2.659h7.121a1.33,1.33,0,0,0,0-2.659Zm0,0" transform="translate(-10625.49 4508.881)" fill="#fff"/>
    <path id="Path_49967" data-name="Path 49967" d="M345.849,176.734h-7.121a1.33,1.33,0,1,0,0,2.659h7.121a1.33,1.33,0,0,0,0-2.659Zm0,0" transform="translate(-10625.49 4457.631)" fill="#fff"/>
  </g>
</svg>
