<svg xmlns="http://www.w3.org/2000/svg" width="50" height="50" viewBox="0 0 50 50">
  <g id="Group_12146" data-name="Group 12146" transform="translate(-242 -3562)">
    <g id="ecommerce" transform="translate(251.284 3567.413)">
      <path id="Path_49975" data-name="Path 49975" d="M27.288,5H3.694A3.7,3.7,0,0,0,0,8.694V27.326A3.7,3.7,0,0,0,3.694,31.02H9.658v2.541H6.777a.908.908,0,1,0,0,1.815H24.2a.908.908,0,1,0,0-1.815H21.324V31.02h5.964a3.7,3.7,0,0,0,3.694-3.694V8.694A3.7,3.7,0,0,0,27.288,5ZM3.694,6.815H27.288a1.881,1.881,0,0,1,1.878,1.878V25.332H1.815V8.694A1.881,1.881,0,0,1,3.694,6.815ZM19.508,33.561H11.474V31.02h8.035Zm7.78-4.357H3.694a1.881,1.881,0,0,1-1.878-1.878v-.179H29.167v.179A1.881,1.881,0,0,1,27.288,29.2Z" fill="#fff"/>
      <path id="Path_49976" data-name="Path 49976" d="M114.486,70.815h1.962v7.6a1.354,1.354,0,0,0,1.352,1.352h7.853a1.353,1.353,0,0,0,1.308-1.009l1.291-4.92a1.352,1.352,0,0,0-1.308-1.7h-8.682V69.908a.908.908,0,0,0-.908-.908h-2.87a.908.908,0,0,0,0,1.815Zm11.859,3.147L125.3,77.956h-7.033V73.962Z" transform="translate(-106.705 -60.127)" fill="#fff"/>
      <path id="Path_49977" data-name="Path 49977" d="M171.36,277h-1.452a.908.908,0,1,0,0,1.815h1.452a.908.908,0,1,0,0-1.815Z" transform="translate(-158.774 -255.541)" fill="#fff"/>
      <path id="Path_49978" data-name="Path 49978" d="M275.36,277h-1.452a.908.908,0,1,0,0,1.815h1.452a.908.908,0,0,0,0-1.815Z" transform="translate(-256.48 -255.541)" fill="#fff"/>
    </g>
    <circle id="Ellipse_881" data-name="Ellipse 881" cx="25" cy="25" r="25" transform="translate(242 3562)" fill="none"/>
  </g>
</svg>
