<svg xmlns="http://www.w3.org/2000/svg" width="22.562" height="22.562" viewBox="0 0 22.562 22.562">
  <g id="Group_12128" data-name="Group 12128" transform="translate(-842.802 -308.179)">
    <g id="Group_1431" data-name="Group 1431" transform="translate(843.408 308.785)">
      <g id="Group_1428" data-name="Group 1428" transform="translate(0 10.675)">
        <g id="Group_1427" data-name="Group 1427">
          <path id="Path_3840" data-name="Path 3840" d="M898.91,340a1,1,0,0,1,0,1.845c-.286.208-.461.351-.461.635s.175.426.461.634a1.125,1.125,0,0,1,.606.909c-.113.231-.235.457-.363.678a10.617,10.617,0,0,0,1.015-2.387c-.057.2-.119.4-.188.592a.867.867,0,0,1-.107-.427.987.987,0,0,1,.46-.812q-.068.306-.153.606a10.661,10.661,0,0,0,.391-2.363c-.007.141-.02.281-.032.42l-.059-.044a1.12,1.12,0,0,1-.607-.922h-1.423C898.449,339.648,898.624,339.79,898.91,340Z" transform="translate(-879.234 -339.364)" fill="#fff"/>
          <path id="Path_3841" data-name="Path 3841" d="M903.888,339.91q.014-.271.014-.546h-.356A.661.661,0,0,0,903.888,339.91Z" transform="translate(-882.552 -339.364)" fill="#fff"/>
          <path id="Path_3842" data-name="Path 3842" d="M895.606,360.462c-.089.092-.178.184-.269.273C895.428,360.646,895.518,360.554,895.606,360.462Z" transform="translate(-877.209 -353.096)" fill="#fff"/>
          <path id="Path_3843" data-name="Path 3843" d="M888.5,340a1,1,0,0,1,0,1.845c-.286.208-.461.351-.461.635s.175.426.461.634a1.119,1.119,0,0,1,.607.922.891.891,0,0,1-.289.666,2.756,2.756,0,0,1-.317.257c-.286.208-.461.35-.461.635s.175.427.461.635a1,1,0,0,1,0,1.844c-.286.208-.461.35-.461.634a.592.592,0,0,0,.008.1l-.122.063a10.7,10.7,0,0,0,2.586-1.86.8.8,0,0,0-.337-.41c-.033-.025-.068-.051-.1-.078a1.119,1.119,0,0,1-.607-.922,1.076,1.076,0,0,1,.565-.891l.042-.031.1-.078c.223-.17.356-.31.356-.557s-.133-.387-.356-.557l-.1-.078a1,1,0,0,1,0-1.844l.1-.078c.223-.17.356-.31.356-.557s-.133-.388-.356-.557l-.1-.078a1.12,1.12,0,0,1-.607-.922h-1.423C888.043,339.648,888.218,339.79,888.5,340Z" transform="translate(-872.387 -339.364)" fill="#fff"/>
          <path id="Path_3844" data-name="Path 3844" d="M883.516,339.921l.105.078a1,1,0,0,1,0,1.845l-.105.078c-.223.17-.356.31-.356.557s.133.387.356.556l.1.078a1.119,1.119,0,0,1,.607.922.892.892,0,0,1-.289.666,2.782,2.782,0,0,1-.317.257l-.105.078c-.223.17-.356.309-.356.557s.133.388.356.557l.105.078a1,1,0,0,1,0,1.844l-.1.078c-.223.169-.356.309-.356.556s.133.387.356.556l.105.078.048.035-.151.053a10.659,10.659,0,0,0,1.1-.461.917.917,0,0,1-.039-.262,1.12,1.12,0,0,1,.607-.922c.286-.208.461-.35.461-.634s-.175-.427-.461-.635a1.12,1.12,0,0,1-.607-.922,1.076,1.076,0,0,1,.565-.891l.042-.031c.286-.208.461-.35.461-.635s-.175-.426-.461-.635a1,1,0,0,1,0-1.844c.286-.208.461-.351.461-.635s-.175-.427-.461-.635a1.12,1.12,0,0,1-.607-.922H883.16C883.16,339.612,883.293,339.751,883.516,339.921Z" transform="translate(-869.283 -339.364)" fill="#fff"/>
          <path id="Path_3845" data-name="Path 3845" d="M854.507,362.92q-.139-.11-.275-.224Q854.368,362.811,854.507,362.92Z" transform="translate(-850.453 -354.55)" fill="#fff"/>
          <path id="Path_3846" data-name="Path 3846" d="M843.5,341.579c-.013-.136-.023-.273-.031-.411a10.7,10.7,0,0,0,.163,1.328.535.535,0,0,0,.173-.4A.627.627,0,0,0,843.5,341.579Z" transform="translate(-843.445 -340.538)" fill="#fff"/>
          <path id="Path_3847" data-name="Path 3847" d="M845.082,344.671c.286-.208.461-.35.461-.635s-.175-.426-.461-.635a1,1,0,0,1,0-1.844c.286-.208.461-.351.461-.635s-.175-.427-.461-.635a1.12,1.12,0,0,1-.607-.922h-1.068q0,.286.015.568l.09.066a1.12,1.12,0,0,1,.607.923.977.977,0,0,1-.447.8q-.046-.2-.082-.4a10.6,10.6,0,0,0,1.31,3.487c.046-.037.093-.073.14-.107Z" transform="translate(-843.408 -339.364)" fill="#fff"/>
          <path id="Path_3848" data-name="Path 3848" d="M898.036,355.788a.56.56,0,0,0,.021.149c-.078.105-.16.207-.243.31a10.681,10.681,0,0,0,.85-1.219c-.055.044-.112.086-.168.126C898.211,355.361,898.036,355.5,898.036,355.788Z" transform="translate(-878.821 -349.559)" fill="#fff"/>
          <path id="Path_3849" data-name="Path 3849" d="M893.709,339.921l.1.078a1,1,0,0,1,0,1.845l-.1.078c-.223.17-.356.31-.356.557s.133.387.356.556l.1.078a1.119,1.119,0,0,1,.607.922.891.891,0,0,1-.289.666,2.755,2.755,0,0,1-.317.257l-.1.078c-.223.17-.356.309-.356.557s.133.388.356.557l.1.078a1.6,1.6,0,0,1,.5.5q.309-.323.589-.67a.861.861,0,0,1-.129-.465,1.076,1.076,0,0,1,.565-.891l.042-.031c.286-.208.461-.35.461-.635s-.175-.426-.461-.635a1,1,0,0,1,0-1.844c.286-.208.461-.351.461-.635s-.175-.427-.461-.635a1.12,1.12,0,0,1-.607-.922h-1.423C893.353,339.612,893.486,339.751,893.709,339.921Z" transform="translate(-875.917 -339.364)" fill="#fff"/>
          <path id="Path_3850" data-name="Path 3850" d="M858.139,340a1,1,0,0,1,0,1.845c-.286.208-.461.351-.461.635s.175.426.46.634a1.119,1.119,0,0,1,.607.922.892.892,0,0,1-.289.666,2.787,2.787,0,0,1-.317.257c-.286.208-.461.35-.461.635s.175.427.461.635a1,1,0,0,1,0,1.844,1.375,1.375,0,0,0-.391.365,10.621,10.621,0,0,0,2.065.992c-.185-.065-.369-.135-.549-.21a.857.857,0,0,1-.162-.513,1.12,1.12,0,0,1,.607-.922l.1-.077c.223-.17.356-.309.356-.556s-.133-.388-.356-.557l-.1-.078a1.119,1.119,0,0,1-.607-.922,1.076,1.076,0,0,1,.565-.891l.042-.031.1-.078c.223-.17.356-.31.356-.557s-.133-.387-.356-.557l-.1-.078a1,1,0,0,1,0-1.844l.1-.078c.223-.17.356-.31.356-.557s-.133-.388-.356-.557l-.1-.078a1.12,1.12,0,0,1-.607-.922h-1.423C857.678,339.648,857.853,339.79,858.139,340Z" transform="translate(-852.696 -339.364)" fill="#fff"/>
          <path id="Path_3851" data-name="Path 3851" d="M852.937,339.921l.1.078a1,1,0,0,1,0,1.845l-.1.078c-.223.17-.356.31-.356.557s.133.387.356.556l.1.078a1.119,1.119,0,0,1,.607.922.891.891,0,0,1-.289.666,2.787,2.787,0,0,1-.317.257l-.1.078c-.223.17-.356.309-.356.557s.133.388.356.557l.1.078a1.119,1.119,0,0,1,.607.922.866.866,0,0,1-.216.584c.226.179.458.35.7.511a1.7,1.7,0,0,1,.481-.461c.286-.208.46-.35.46-.634s-.175-.427-.46-.635a1.119,1.119,0,0,1-.607-.922,1.075,1.075,0,0,1,.566-.891l.042-.031c.286-.208.46-.35.46-.635s-.175-.426-.46-.635a1,1,0,0,1,0-1.844c.286-.208.46-.351.46-.635s-.175-.427-.46-.635a1.119,1.119,0,0,1-.607-.922h-1.423C852.581,339.612,852.714,339.751,852.937,339.921Z" transform="translate(-849.379 -339.364)" fill="#fff"/>
          <path id="Path_3852" data-name="Path 3852" d="M863.13,339.921l.1.078a1,1,0,0,1,0,1.845l-.1.078c-.223.17-.356.31-.356.557s.133.387.356.556l.1.078a1.119,1.119,0,0,1,.607.922.891.891,0,0,1-.289.666,2.782,2.782,0,0,1-.317.257l-.1.078c-.223.17-.356.309-.356.557s.133.388.356.557l.1.078a1,1,0,0,1,0,1.844l-.1.078c-.223.169-.356.309-.356.556s.133.387.356.556l.1.078a3.2,3.2,0,0,1,.273.217c-.066-.021-.132-.044-.2-.066a10.665,10.665,0,0,0,3.377.548c.227,0,.452-.009.675-.023-.122.008-.246.012-.37.015a.943.943,0,0,0-.306-.325l-.1-.078a1,1,0,0,1,0-1.844l.1-.077c.223-.17.356-.309.356-.556s-.133-.388-.356-.557c-.033-.025-.068-.051-.1-.078a1.119,1.119,0,0,1-.607-.922,1.076,1.076,0,0,1,.565-.891l.042-.031.1-.078c.223-.17.356-.31.356-.557s-.133-.387-.356-.557l-.1-.078a1,1,0,0,1,0-1.844l.1-.078c.223-.17.356-.31.356-.557s-.133-.388-.356-.557l-.1-.078a1.12,1.12,0,0,1-.607-.922h-1.423c0,.284.175.426.461.635a1,1,0,0,1,0,1.845c-.286.208-.461.351-.461.635s.175.426.461.634a1.119,1.119,0,0,1,.607.922.891.891,0,0,1-.29.666,2.785,2.785,0,0,1-.317.257c-.286.208-.461.35-.461.635s.175.427.461.635a1,1,0,0,1,0,1.844c-.285.208-.461.35-.461.634s.175.426.461.634a1.346,1.346,0,0,1,.562.641c-.143-.015-.286-.034-.427-.054a1.747,1.747,0,0,0-.345-.3,1,1,0,0,1,0-1.844c.286-.208.46-.35.46-.634s-.175-.427-.46-.635a1.119,1.119,0,0,1-.607-.922,1.076,1.076,0,0,1,.565-.891l.042-.031c.286-.208.46-.35.46-.635s-.175-.426-.46-.635a1,1,0,0,1,0-1.844c.286-.208.46-.351.46-.635s-.175-.427-.46-.635a1.119,1.119,0,0,1-.607-.922h-1.424C862.774,339.612,862.907,339.751,863.13,339.921Z" transform="translate(-856.013 -339.364)" fill="#fff"/>
          <path id="Path_3853" data-name="Path 3853" d="M847.485,339.364c0,.284.175.426.461.635a1,1,0,0,1,0,1.845c-.286.208-.461.351-.461.635s.175.426.461.634a1.119,1.119,0,0,1,.607.922.891.891,0,0,1-.289.666,2.82,2.82,0,0,1-.317.257c-.075.055-.143.105-.2.155-.064-.1-.128-.2-.189-.3a10.724,10.724,0,0,0,2.285,2.7.519.519,0,0,0,.136-.359c0-.248-.133-.388-.356-.557l-.1-.078a1.119,1.119,0,0,1-.607-.922,1.076,1.076,0,0,1,.565-.891l.042-.031.1-.078c.223-.17.356-.31.356-.557s-.133-.387-.356-.557l-.1-.078a1,1,0,0,1,0-1.844l.1-.078c.223-.17.356-.31.356-.557s-.133-.388-.356-.557l-.1-.078a1.12,1.12,0,0,1-.607-.922h-1.423Z" transform="translate(-846.062 -339.364)" fill="#fff"/>
          <path id="Path_3854" data-name="Path 3854" d="M873.323,339.921l.105.078a1,1,0,0,1,0,1.845l-.105.078c-.223.17-.356.31-.356.557s.133.387.356.556l.1.078a1.118,1.118,0,0,1,.607.922.891.891,0,0,1-.289.666,2.793,2.793,0,0,1-.317.257l-.105.078c-.223.17-.356.309-.356.557s.133.388.356.557l.105.078a1,1,0,0,1,0,1.844l-.1.078c-.222.169-.356.309-.356.556s.133.387.356.556l.105.078a1.31,1.31,0,0,1,.571.675,10.639,10.639,0,0,0,2.786-.554l-.159.053a.984.984,0,0,1-.457-.809,1.119,1.119,0,0,1,.607-.922l.1-.077c.223-.17.356-.309.356-.556s-.133-.388-.356-.557c-.033-.025-.068-.051-.1-.078a1.119,1.119,0,0,1-.607-.922,1.076,1.076,0,0,1,.565-.891l.042-.031.1-.078c.223-.17.356-.31.356-.557s-.133-.387-.356-.557l-.1-.078a1,1,0,0,1,0-1.844l.1-.078c.223-.17.356-.31.356-.557s-.133-.388-.356-.557l-.1-.078a1.119,1.119,0,0,1-.607-.922h-1.424c0,.284.175.426.461.635a1,1,0,0,1,0,1.845c-.286.208-.461.351-.461.635s.175.426.461.634a1.119,1.119,0,0,1,.607.922.891.891,0,0,1-.289.666,2.787,2.787,0,0,1-.317.257c-.286.208-.461.35-.461.635s.175.427.461.635a1,1,0,0,1,0,1.844c-.286.208-.461.35-.461.634s.175.426.461.634a1.787,1.787,0,0,1,.464.437q-.194.043-.391.08a2.413,2.413,0,0,0-.282-.229,1,1,0,0,1,0-1.844c.286-.208.46-.35.46-.634s-.175-.427-.46-.635a1.119,1.119,0,0,1-.607-.922,1.076,1.076,0,0,1,.565-.891l.042-.031c.286-.208.46-.35.46-.635s-.175-.426-.46-.635a1,1,0,0,1,0-1.844c.286-.208.46-.351.46-.635s-.175-.427-.46-.635a1.119,1.119,0,0,1-.607-.922h-1.423C872.967,339.612,873.1,339.751,873.323,339.921Z" transform="translate(-862.648 -339.364)" fill="#fff"/>
          <path id="Path_3855" data-name="Path 3855" d="M855.02,363.34Z" transform="translate(-850.966 -354.969)" fill="#fff"/>
          <path id="Path_3856" data-name="Path 3856" d="M854.231,362.695h0Z" transform="translate(-850.453 -354.55)" fill="#fff"/>
          <rect id="Rectangle_401" data-name="Rectangle 401" width="0.356" transform="translate(2.847)" fill="#fff"/>
          <rect id="Rectangle_402" data-name="Rectangle 402" width="0.356" transform="translate(1.067)" fill="#fff"/>
          <path id="Path_3857" data-name="Path 3857" d="M847.685,354.96Z" transform="translate(-846.192 -349.515)" fill="#fff"/>
          <path id="Path_3858" data-name="Path 3858" d="M843.452,340.992c0,.021,0,.041,0,.061,0-.021,0-.041,0-.061Z" transform="translate(-843.437 -340.423)" fill="#fff"/>
          <path id="Path_3859" data-name="Path 3859" d="M843.93,344.972h0Z" transform="translate(-843.748 -343.013)" fill="#fff"/>
          <path id="Path_3860" data-name="Path 3860" d="M863.793,368.194l.181.061c-.061-.02-.122-.04-.182-.062Z" transform="translate(-856.676 -358.129)" fill="#fff"/>
          <rect id="Rectangle_403" data-name="Rectangle 403" width="0.356" transform="translate(6.405)" fill="#fff"/>
          <path id="Path_3861" data-name="Path 3861" d="M857.02,364.8c.1.066.2.129.3.192h0c-.1-.062-.2-.126-.3-.192Z" transform="translate(-852.268 -355.922)" fill="#fff"/>
          <rect id="Rectangle_404" data-name="Rectangle 404" width="0.356" transform="translate(4.626)" fill="#fff"/>
          <rect id="Rectangle_405" data-name="Rectangle 405" width="0.356" transform="translate(9.963)" fill="#fff"/>
          <path id="Path_3862" data-name="Path 3862" d="M875.922,369.875h0Z" transform="translate(-864.571 -359.223)" fill="#fff"/>
          <rect id="Rectangle_406" data-name="Rectangle 406" width="0.356" transform="translate(8.184)" fill="#fff"/>
          <rect id="Rectangle_407" data-name="Rectangle 407" width="0.356" transform="translate(13.522)" fill="#fff"/>
          <path id="Path_3863" data-name="Path 3863" d="M884,368.194h0l-.1.033Z" transform="translate(-869.768 -358.129)" fill="#fff"/>
          <rect id="Rectangle_408" data-name="Rectangle 408" width="0.356" transform="translate(11.742)" fill="#fff"/>
          <rect id="Rectangle_409" data-name="Rectangle 409" width="0.356" transform="translate(17.08)" fill="#fff"/>
          <path id="Path_3864" data-name="Path 3864" d="M895.336,361.245h0Z" transform="translate(-877.208 -353.606)" fill="#fff"/>
          <path id="Path_3865" data-name="Path 3865" d="M896.11,360.458Z" transform="translate(-877.711 -353.094)" fill="#fff"/>
          <rect id="Rectangle_410" data-name="Rectangle 410" width="0.356" transform="translate(15.301)" fill="#fff"/>
          <path id="Path_3866" data-name="Path 3866" d="M887.35,366.679c.068-.033.135-.069.2-.1-.067.035-.134.07-.2.1Z" transform="translate(-872.01 -357.075)" fill="#fff"/>
          <rect id="Rectangle_411" data-name="Rectangle 411" width="0.356" transform="translate(20.638)" fill="#fff"/>
          <path id="Path_3867" data-name="Path 3867" d="M904.526,340.928Z" transform="translate(-883.19 -340.382)" fill="#fff"/>
          <path id="Path_3868" data-name="Path 3868" d="M903.384,347.7l-.012.041Z" transform="translate(-882.439 -344.788)" fill="#fff"/>
          <path id="Path_3869" data-name="Path 3869" d="M900.249,354.784c.026-.043.05-.087.075-.131h0c-.025.043-.049.087-.075.131Z" transform="translate(-880.406 -349.315)" fill="#fff"/>
          <rect id="Rectangle_412" data-name="Rectangle 412" width="0.356" transform="translate(18.859)" fill="#fff"/>
          <path id="Path_3870" data-name="Path 3870" d="M897.8,358.526l.005-.007-.005.007Z" transform="translate(-878.811 -351.832)" fill="#fff"/>
        </g>
        <path id="Path_3871" data-name="Path 3871" d="M864.758,339.364a10.675,10.675,0,0,1-21.35,0Z" transform="translate(-843.408 -339.364)" fill="none" stroke="#fff" stroke-width="1.213"/>
      </g>
      <g id="Group_1430" data-name="Group 1430">
        <path id="Path_3872" data-name="Path 3872" d="M843.408,319.46a10.675,10.675,0,1,1,21.35,0Z" transform="translate(-843.408 -308.785)" fill="none" stroke="#fff" stroke-width="1.213"/>
        <g id="Group_1429" data-name="Group 1429" transform="translate(0.712 0.712)">
          <rect id="Rectangle_413" data-name="Rectangle 413" width="0.356" height="0.356" transform="translate(3.558 1.779)" fill="#fff"/>
          <path id="Path_3873" data-name="Path 3873" d="M860.736,311.5v.016h.356v-.177C860.972,311.388,860.853,311.44,860.736,311.5Z" transform="translate(-855.398 -311.157)" fill="#fff"/>
          <rect id="Rectangle_414" data-name="Rectangle 414" width="0.356" height="0.356" transform="translate(7.117 1.779)" fill="#fff"/>
          <rect id="Rectangle_415" data-name="Rectangle 415" width="0.356" height="0.356" transform="translate(8.896)" fill="#fff"/>
          <rect id="Rectangle_416" data-name="Rectangle 416" width="0.356" height="0.356" transform="translate(10.675 1.779)" fill="#fff"/>
          <rect id="Rectangle_417" data-name="Rectangle 417" width="0.356" height="0.356" transform="translate(12.454)" fill="#fff"/>
          <rect id="Rectangle_418" data-name="Rectangle 418" width="0.356" height="0.356" transform="translate(14.233 1.779)" fill="#fff"/>
          <path id="Path_3874" data-name="Path 3874" d="M846.137,326.469v-.356h-.016c-.056.117-.109.236-.161.356Z" transform="translate(-845.781 -320.775)" fill="#fff"/>
          <rect id="Rectangle_419" data-name="Rectangle 419" width="0.356" height="0.356" transform="translate(1.779 3.558)" fill="#fff"/>
          <rect id="Rectangle_420" data-name="Rectangle 420" width="0.356" height="0.356" transform="translate(3.558 5.337)" fill="#fff"/>
          <rect id="Rectangle_421" data-name="Rectangle 421" width="0.356" height="0.356" transform="translate(5.337 3.558)" fill="#fff"/>
          <rect id="Rectangle_422" data-name="Rectangle 422" width="0.356" height="0.356" transform="translate(7.117 5.337)" fill="#fff"/>
          <rect id="Rectangle_423" data-name="Rectangle 423" width="0.356" height="0.356" transform="translate(8.896 3.558)" fill="#fff"/>
          <rect id="Rectangle_424" data-name="Rectangle 424" width="0.356" height="0.356" transform="translate(10.675 5.337)" fill="#fff"/>
          <rect id="Rectangle_425" data-name="Rectangle 425" width="0.356" height="0.356" transform="translate(12.454 3.558)" fill="#fff"/>
          <rect id="Rectangle_426" data-name="Rectangle 426" width="0.356" height="0.356" transform="translate(14.233 5.337)" fill="#fff"/>
          <rect id="Rectangle_427" data-name="Rectangle 427" width="0.356" height="0.356" transform="translate(16.012 3.558)" fill="#fff"/>
          <rect id="Rectangle_428" data-name="Rectangle 428" width="0.356" height="0.356" transform="translate(17.791 5.337)" fill="#fff"/>
          <rect id="Rectangle_429" data-name="Rectangle 429" width="0.356" height="0.356" transform="translate(0 8.896)" fill="#fff"/>
          <rect id="Rectangle_430" data-name="Rectangle 430" width="0.356" height="0.356" transform="translate(1.779 7.117)" fill="#fff"/>
          <rect id="Rectangle_431" data-name="Rectangle 431" width="0.356" height="0.356" transform="translate(3.558 8.896)" fill="#fff"/>
          <rect id="Rectangle_432" data-name="Rectangle 432" width="0.356" height="0.356" transform="translate(5.337 7.117)" fill="#fff"/>
          <rect id="Rectangle_433" data-name="Rectangle 433" width="0.356" height="0.356" transform="translate(7.117 8.896)" fill="#fff"/>
          <rect id="Rectangle_434" data-name="Rectangle 434" width="0.356" height="0.356" transform="translate(8.896 7.117)" fill="#fff"/>
          <rect id="Rectangle_435" data-name="Rectangle 435" width="0.356" height="0.356" transform="translate(10.675 8.896)" fill="#fff"/>
          <rect id="Rectangle_436" data-name="Rectangle 436" width="0.356" height="0.356" transform="translate(12.454 7.117)" fill="#fff"/>
          <rect id="Rectangle_437" data-name="Rectangle 437" width="0.356" height="0.356" transform="translate(14.233 8.896)" fill="#fff"/>
          <rect id="Rectangle_438" data-name="Rectangle 438" width="0.356" height="0.356" transform="translate(16.012 7.117)" fill="#fff"/>
          <rect id="Rectangle_439" data-name="Rectangle 439" width="0.356" height="0.356" transform="translate(17.791 8.896)" fill="#fff"/>
          <rect id="Rectangle_440" data-name="Rectangle 440" width="0.356" height="0.356" transform="translate(19.571 7.117)" fill="#fff"/>
        </g>
      </g>
    </g>
    <circle id="Ellipse_204" data-name="Ellipse 204" cx="6.594" cy="6.594" r="6.594" transform="matrix(0.922, -0.387, 0.387, 0.922, 845.45, 315.933)" fill="#fff"/>
  </g>
</svg>
