<svg xmlns="http://www.w3.org/2000/svg" width="210.854" height="210.707" viewBox="0 0 210.854 210.707">
  <g id="Group_12258" data-name="Group 12258" transform="translate(-1383.146 -2505.646)">
    <path id="Path_51782" data-name="Path 51782" d="M210,0,0,210" transform="translate(1383.5 2506)" fill="none" stroke="#838383" stroke-width="1"/>
    <text id="_3" data-name="3" transform="translate(1433.247 2586)" font-size="80" font-family="ArialMT, Arial"><tspan x="0" y="0">3</tspan></text>
    <g id="Group_2487" data-name="Group 2487" transform="translate(0 -10.849)">
      <path id="Path_51783" data-name="Path 51783" d="M51.5,0A51.5,51.5,0,1,1,0,51.5,51.5,51.5,0,0,1,51.5,0Z" transform="translate(1491 2609)" fill="#ceeeff"/>
      <circle id="Ellipse_207" data-name="Ellipse 207" cx="40.5" cy="40.5" r="40.5" transform="translate(1502 2620)" fill="#006cbc"/>
    </g>
    <g id="Group_8511" data-name="Group 8511" transform="translate(6257.997 1166)">
      <g id="smartphone_1_" data-name="smartphone (1)" transform="translate(-4735.68 1456.844)">
        <path id="Path_326" data-name="Path 326" d="M78.733,26.679a.844.844,0,0,0-.881.8V48.954A4.372,4.372,0,0,1,73.293,53.1H49.181a4.372,4.372,0,0,1-4.558-4.147V5.751A4.372,4.372,0,0,1,49.181,1.6H73.293a4.372,4.372,0,0,1,4.558,4.147V9.064a.885.885,0,0,0,1.762,0V5.751A6.063,6.063,0,0,0,73.293,0H49.181a6.063,6.063,0,0,0-6.32,5.751v43.2a6.063,6.063,0,0,0,6.32,5.751H73.293a6.063,6.063,0,0,0,6.321-5.751V27.481a.844.844,0,0,0-.881-.8Z" transform="translate(-42.861 0)" fill="#fff"/>
        <path id="Path_327" data-name="Path 327" d="M139.632,274.609h18.12a2.69,2.69,0,0,0,2.783-2.578V250.359a.876.876,0,0,0-1.748,0V272.03a1,1,0,0,1-1.035.959h-18.12a.812.812,0,1,0,0,1.619Z" transform="translate(-128.658 -223.399)" fill="#fff"/>
        <path id="Path_328" data-name="Path 328" d="M74.619,106.24a.877.877,0,0,0-.874-.88.889.889,0,0,0-.885.891v40.467a2.8,2.8,0,0,0,2.783,2.8h2.045a.88.88,0,0,0,0-1.76H75.644a1.04,1.04,0,0,1-1.035-1.042v-40.34A.9.9,0,0,0,74.619,106.24Z" transform="translate(-69.365 -98.311)" fill="#fff"/>
        <path id="Path_329" data-name="Path 329" d="M101.442,37.256a.874.874,0,0,0,.874-.874v-3.6A2.786,2.786,0,0,0,99.533,30H95.443a.889.889,0,0,0-.867.711,1.2,1.2,0,0,1-1.176.963H81.776A1.2,1.2,0,0,1,80.6,30.7a.888.888,0,0,0-.866-.7H75.644a2.786,2.786,0,0,0-2.783,2.783v3.137a.885.885,0,0,0,.885.885.875.875,0,0,0,.863-1.011V32.782a1.036,1.036,0,0,1,1.035-1.035h3.475a2.957,2.957,0,0,0,2.657,1.674H93.4a2.958,2.958,0,0,0,2.658-1.674h3.474a1.036,1.036,0,0,1,1.035,1.035v3.6A.874.874,0,0,0,101.442,37.256Z" transform="translate(-69.365 -26.504)" fill="#fff"/>
        <path id="Path_334" data-name="Path 334" d="M234.848,107.283h-2.374a.874.874,0,1,0,0,1.748h2.374a1.644,1.644,0,0,1,1.642,1.642v8.05a1.644,1.644,0,0,1-1.642,1.642H211.214a1.643,1.643,0,0,1-1.642-1.642v-8.05a1.643,1.643,0,0,1,1.642-1.642H228.75a.874.874,0,0,0,0-1.748H211.214a3.393,3.393,0,0,0-3.389,3.389v8.05a3.393,3.393,0,0,0,3.389,3.389h23.633a3.393,3.393,0,0,0,3.39-3.389v-8.05A3.393,3.393,0,0,0,234.848,107.283Z" transform="translate(-194.644 -96.155)" fill="#fff"/>
      </g>
      <text id="_" data-name="&lt;/&gt;" transform="translate(-4707 1480)" fill="#fff" font-size="12" font-family="Arial-BoldMT, Arial" font-weight="700" letter-spacing="0.02em"><tspan x="-8.915" y="0">&lt;/&gt;</tspan></text>
      <path id="Path_51718" data-name="Path 51718" d="M229.514,291.432a2.732,2.732,0,1,0,2.732,2.732A2.735,2.735,0,0,0,229.514,291.432Zm0,4.062a1.33,1.33,0,1,1,1.33-1.33A1.331,1.331,0,0,1,229.514,295.494Z" transform="translate(-4946.318 1199.935)" fill="#fff"/>
      <path id="Path_51719" data-name="Path 51719" d="M183.8,233.132a1.451,1.451,0,0,0,.19-1.716l-.841-1.456a1.451,1.451,0,0,0-1.581-.693l-1.591.357a.062.062,0,0,1-.048-.013,6.8,6.8,0,0,0-1.25-.722.061.061,0,0,1-.035-.035l-.486-1.556a1.451,1.451,0,0,0-1.391-1.023H175.09A1.451,1.451,0,0,0,173.7,227.3l-.486,1.556a.061.061,0,0,1-.035.035,6.812,6.812,0,0,0-1.25.722.061.061,0,0,1-.048.013l-1.591-.357a1.45,1.45,0,0,0-1.581.693l-.841,1.456a1.451,1.451,0,0,0,.19,1.716l1.1,1.2a.061.061,0,0,1,.013.048,6.742,6.742,0,0,0,0,1.443.061.061,0,0,1-.013.048l-1.1,1.2a1.451,1.451,0,0,0-.19,1.716l.841,1.456a1.451,1.451,0,0,0,1.581.693l1.591-.357a.063.063,0,0,1,.048.013,6.8,6.8,0,0,0,1.25.722.061.061,0,0,1,.035.035l.486,1.556a1.451,1.451,0,0,0,1.391,1.023h1.681a1.451,1.451,0,0,0,1.391-1.022l.486-1.556a.061.061,0,0,1,.035-.035,6.8,6.8,0,0,0,1.251-.722.061.061,0,0,1,.048-.013l1.591.357a1.451,1.451,0,0,0,1.581-.693l.841-1.456a1.451,1.451,0,0,0-.19-1.716l-1.1-1.2a.062.062,0,0,1-.013-.048,6.737,6.737,0,0,0,0-1.443.061.061,0,0,1,.013-.048Zm-2.512,1.4a5.337,5.337,0,0,1,0,1.144,1.463,1.463,0,0,0,.376,1.148l1.1,1.2a.054.054,0,0,1,.007.064l-.841,1.456a.054.054,0,0,1-.059.026l-1.591-.357a1.463,1.463,0,0,0-1.182.249,5.4,5.4,0,0,1-.992.573,1.463,1.463,0,0,0-.805.9l-.486,1.556a.054.054,0,0,1-.052.038H175.09a.054.054,0,0,1-.052-.038l-.486-1.556a1.463,1.463,0,0,0-.805-.9,5.4,5.4,0,0,1-.992-.573,1.469,1.469,0,0,0-.866-.284,1.451,1.451,0,0,0-.316.035l-1.591.357a.054.054,0,0,1-.059-.026l-.841-1.456a.054.054,0,0,1,.007-.064l1.1-1.2a1.463,1.463,0,0,0,.376-1.148,5.337,5.337,0,0,1,0-1.144,1.463,1.463,0,0,0-.376-1.148l-1.1-1.2a.054.054,0,0,1-.007-.064l.841-1.456a.053.053,0,0,1,.059-.026l1.591.357a1.463,1.463,0,0,0,1.182-.249,5.4,5.4,0,0,1,.992-.573,1.462,1.462,0,0,0,.805-.9l.486-1.556a.054.054,0,0,1,.052-.038h1.681a.054.054,0,0,1,.052.038l.486,1.556a1.463,1.463,0,0,0,.805.9,5.4,5.4,0,0,1,.992.573,1.465,1.465,0,0,0,1.182.249l1.591-.357a.054.054,0,0,1,.059.026l.841,1.456a.054.054,0,0,1-.007.064l-1.1,1.2a1.463,1.463,0,0,0-.376,1.148Z" transform="translate(-4892.735 1258.999)" fill="#fff"/>
    </g>
  </g>
</svg>
