<svg xmlns="http://www.w3.org/2000/svg" xmlns:xlink="http://www.w3.org/1999/xlink" width="80.176" height="43.316" viewBox="0 0 80.176 43.316">
  <defs>
    <linearGradient id="linear-gradient" x1="0.793" y1="-0.364" x2="0.22" y2="1.324" gradientUnits="objectBoundingBox">
      <stop offset="0.508" stop-color="#1799a5"/>
      <stop offset="1" stop-color="#85bad4"/>
    </linearGradient>
    <linearGradient id="linear-gradient-2" x1="-0.114" y1="0.478" x2="0.977" y2="0.548" gradientUnits="objectBoundingBox">
      <stop offset="0" stop-color="#35769d"/>
      <stop offset="0.61" stop-color="#1786c1"/>
      <stop offset="1" stop-color="#58a3d4"/>
    </linearGradient>
    <filter id="Path_52197" x="23.383" y="17.993" width="28.658" height="25.323" filterUnits="userSpaceOnUse">
      <feOffset dy="3" input="SourceAlpha"/>
      <feGaussianBlur stdDeviation="3" result="blur"/>
      <feFlood flood-opacity="0.161"/>
      <feComposite operator="in" in2="blur"/>
      <feComposite in="SourceGraphic"/>
    </filter>
    <linearGradient id="linear-gradient-3" y1="0.5" x2="1" y2="0.5" gradientUnits="objectBoundingBox">
      <stop offset="0" stop-color="#1e8e99"/>
      <stop offset="0.488" stop-color="#a3d2b7"/>
      <stop offset="0.988" stop-color="#00829b"/>
    </linearGradient>
    <filter id="Path_52193" x="35.584" y="0" width="44.592" height="41.316" filterUnits="userSpaceOnUse">
      <feOffset dy="1" input="SourceAlpha"/>
      <feGaussianBlur stdDeviation="3" result="blur-2"/>
      <feFlood flood-color="#fff" flood-opacity="0.141"/>
      <feComposite operator="in" in2="blur-2"/>
      <feComposite in="SourceGraphic"/>
    </filter>
    <linearGradient id="linear-gradient-4" x1="0.058" y1="-0.125" x2="0.681" y2="0.931" gradientUnits="objectBoundingBox">
      <stop offset="0.001" stop-color="#51bad2"/>
      <stop offset="0.488" stop-color="#5fb9ae"/>
      <stop offset="1" stop-color="#007cba"/>
    </linearGradient>
    <filter id="Path_52195" x="26.457" y="2.785" width="31.566" height="31.567" filterUnits="userSpaceOnUse">
      <feOffset dy="3" input="SourceAlpha"/>
      <feGaussianBlur stdDeviation="3" result="blur-3"/>
      <feFlood flood-opacity="0.161"/>
      <feComposite operator="in" in2="blur-3"/>
      <feComposite in="SourceGraphic"/>
    </filter>
    <linearGradient id="linear-gradient-5" x1="0.462" y1="0.209" x2="0.527" y2="1.349" gradientUnits="objectBoundingBox">
      <stop offset="0.001" stop-color="#005486"/>
      <stop offset="0.61" stop-color="#69c4e4"/>
      <stop offset="1" stop-color="#83c3a3"/>
    </linearGradient>
    <filter id="Path_52196" x="17.553" y="2" width="28.842" height="41.316" filterUnits="userSpaceOnUse">
      <feOffset dy="3" input="SourceAlpha"/>
      <feGaussianBlur stdDeviation="3" result="blur-4"/>
      <feFlood flood-opacity="0.161"/>
      <feComposite operator="in" in2="blur-4"/>
      <feComposite in="SourceGraphic"/>
    </filter>
    <linearGradient id="linear-gradient-6" x1="0.462" y1="-0.235" x2="0.521" y2="0.915" gradientUnits="objectBoundingBox">
      <stop offset="0" stop-color="#60a23e"/>
      <stop offset="0.488" stop-color="#359f82"/>
      <stop offset="1" stop-color="#4bb9d5"/>
    </linearGradient>
    <filter id="Rectangle_832" x="0" y="2" width="23.573" height="36.619" filterUnits="userSpaceOnUse">
      <feOffset dy="3" input="SourceAlpha"/>
      <feGaussianBlur stdDeviation="3" result="blur-5"/>
      <feFlood flood-opacity="0.161"/>
      <feComposite operator="in" in2="blur-5"/>
      <feComposite in="SourceGraphic"/>
    </filter>
    <linearGradient id="linear-gradient-7" y1="0.5" x2="1" y2="0.5" gradientUnits="objectBoundingBox">
      <stop offset="0" stop-color="#508725"/>
      <stop offset="0.488" stop-color="#70a626"/>
      <stop offset="1" stop-color="#7aab23"/>
    </linearGradient>
    <filter id="Rectangle_833" x="5.573" y="2" width="28.627" height="22.684" filterUnits="userSpaceOnUse">
      <feOffset dy="3" input="SourceAlpha"/>
      <feGaussianBlur stdDeviation="3" result="blur-6"/>
      <feFlood flood-opacity="0.161"/>
      <feComposite operator="in" in2="blur-6"/>
      <feComposite in="SourceGraphic"/>
    </filter>
    <linearGradient id="linear-gradient-8" x1="1.149" y1="0.522" x2="-0.473" y2="0.451" gradientUnits="objectBoundingBox">
      <stop offset="0.001" stop-color="#005486"/>
      <stop offset="0.612" stop-color="#69c4e4"/>
      <stop offset="1" stop-color="#83c3a3"/>
    </linearGradient>
    <filter id="Rectangle_834" x="0" y="20.632" width="34.193" height="22.684" filterUnits="userSpaceOnUse">
      <feOffset dy="3" input="SourceAlpha"/>
      <feGaussianBlur stdDeviation="3" result="blur-7"/>
      <feFlood flood-opacity="0.161"/>
      <feComposite operator="in" in2="blur-7"/>
      <feComposite in="SourceGraphic"/>
    </filter>
    <linearGradient id="linear-gradient-9" y1="0.5" x2="1" y2="0.5" gradientUnits="objectBoundingBox">
      <stop offset="0" stop-color="#30784a"/>
      <stop offset="0.487" stop-color="#489e5b"/>
      <stop offset="1" stop-color="#54a050"/>
    </linearGradient>
    <filter id="Rectangle_835" x="5.573" y="11.543" width="23.727" height="22.684" filterUnits="userSpaceOnUse">
      <feOffset dy="3" input="SourceAlpha"/>
      <feGaussianBlur stdDeviation="3" result="blur-8"/>
      <feFlood flood-opacity="0.161"/>
      <feComposite operator="in" in2="blur-8"/>
      <feComposite in="SourceGraphic"/>
    </filter>
  </defs>
  <g id="Group_12254" data-name="Group 12254" transform="translate(-163.521 -12.735)">
    <path id="Path_52194" data-name="Path 52194" d="M273.35,252.619l-3.156-3.156-.138-.138H266.4v3.288l6.948.012A.03.03,0,0,1,273.35,252.619Z" transform="translate(-60.805 -222.822)" fill="url(#linear-gradient)"/>
    <g transform="matrix(1, 0, 0, 1, 163.52, 12.73)" filter="url(#Path_52197)">
      <path id="Path_52197-2" data-name="Path 52197" d="M220.042,309.537a5.65,5.65,0,0,1-5.65,5.65,5.009,5.009,0,0,1-5.008-5.009v-2.314a1.791,1.791,0,0,0,1.673,1.673c.036,0,.076,0,.114,0s.078,0,.114,0Z" transform="translate(-177 -283.87)" fill="url(#linear-gradient-2)"/>
    </g>
    <g transform="matrix(1, 0, 0, 1, 163.52, 12.73)" filter="url(#Path_52193)">
      <path id="Path_52193-2" data-name="Path 52193" d="M292.823,217.194l-11.592,22.1h2.594s9.127-.82,9.127-11.571H291.1l3.382-4.934,3.2,4.934h-1.714s.51,11.524,8.9,11.524h2.965l-11.33-22.229a1.887,1.887,0,0,0-1.678-1.039h0A2.254,2.254,0,0,0,292.823,217.194Z" transform="translate(-236.65 -207.98)" fill="url(#linear-gradient-3)"/>
    </g>
    <g transform="matrix(1, 0, 0, 1, 163.52, 12.73)" filter="url(#Path_52195)">
      <path id="Path_52195-2" data-name="Path 52195" d="M237.773,229.06a3.81,3.81,0,1,1-3.535-5.52c.043,0,.087,0,.131,0s.088,0,.131,0h1.039l-2.87-2.87a6.89,6.89,0,1,0,8.377,8.39v0" transform="translate(-192.02 -211.88)" fill="url(#linear-gradient-4)"/>
    </g>
    <g transform="matrix(1, 0, 0, 1, 163.52, 12.73)" filter="url(#Path_52196)">
      <path id="Path_52196-2" data-name="Path 52196" d="M185.919,239.547h-5.009a5.887,5.887,0,0,1-5.834-5.939V216.231a5.76,5.76,0,0,1,4.125,1.74,5.968,5.968,0,0,1,1.709,4.2v12.279A5.054,5.054,0,0,0,185.919,239.547Z" transform="translate(-148.52 -208.23)" fill="url(#linear-gradient-5)"/>
    </g>
    <g transform="matrix(1, 0, 0, 1, 163.52, 12.73)" filter="url(#Rectangle_832)">
      <path id="Rectangle_832-2" data-name="Rectangle 832" d="M5.573,0h0a0,0,0,0,1,0,0V18.619a0,0,0,0,1,0,0H0a0,0,0,0,1,0,0V5.573A5.573,5.573,0,0,1,5.573,0Z" transform="translate(9 8)" fill="url(#linear-gradient-6)"/>
    </g>
    <g transform="matrix(1, 0, 0, 1, 163.52, 12.73)" filter="url(#Rectangle_833)">
      <path id="Rectangle_833-2" data-name="Rectangle 833" d="M0,0H10.627a0,0,0,0,1,0,0V0A4.684,4.684,0,0,1,5.943,4.684H0a0,0,0,0,1,0,0V0A0,0,0,0,1,0,0Z" transform="translate(14.57 8)" fill="url(#linear-gradient-7)"/>
    </g>
    <g transform="matrix(1, 0, 0, 1, 163.52, 12.73)" filter="url(#Rectangle_834)">
      <path id="Rectangle_834-2" data-name="Rectangle 834" d="M0,0H16.193a0,0,0,0,1,0,0V0A4.684,4.684,0,0,1,11.51,4.684H4.684A4.684,4.684,0,0,1,0,0V0A0,0,0,0,1,0,0Z" transform="translate(9 26.63)" fill="url(#linear-gradient-8)"/>
    </g>
    <g transform="matrix(1, 0, 0, 1, 163.52, 12.73)" filter="url(#Rectangle_835)">
      <path id="Rectangle_835-2" data-name="Rectangle 835" d="M0,0H5.727a0,0,0,0,1,0,0V0A4.684,4.684,0,0,1,1.043,4.684H0a0,0,0,0,1,0,0V0A0,0,0,0,1,0,0Z" transform="translate(14.57 17.54)" fill="url(#linear-gradient-9)"/>
    </g>
  </g>
</svg>
