<svg xmlns="http://www.w3.org/2000/svg" width="84.862" height="84.862" viewBox="0 0 84.862 84.862">
  <g id="Group_8625" data-name="Group 8625" transform="translate(1658.991 -4084.998)">
    <path id="Path_51946" data-name="Path 51946" d="M18.964,58.56,0,0,55.631,18.968,30.717,30.717Z" transform="translate(-1615.526 4087.058) rotate(45)" fill="rgba(156,218,218,0.4)"/>
    <path id="Path_51947" data-name="Path 51947" d="M57.557,19.047,1.942.081A1.468,1.468,0,0,0,.074,1.921L19.037,60.465a1.46,1.46,0,0,0,1.33,1.007h.061a1.469,1.469,0,0,0,1.351-.9L33.306,33.257l24.4-11.5a1.464,1.464,0,0,0-.143-2.71ZM20.615,55.818,4.738,6.812,30.445,32.519Zm11.872-25.4L6.963,4.889,53.188,20.646Z" transform="translate(-1615.526 4084.992) rotate(45)" fill="#5c9d8f"/>
    <path id="Path_51871" data-name="Path 51871" d="M5.164,3.346A3.179,3.179,0,0,1,2.78,2.47,3.336,3.336,0,0,1,1.924.035v-6.5H.539V-7.971H1.924V-9.978l2.007-.194v2.2H6.824v1.508H3.931V-.331q0,2.17,1.874,2.17a4.4,4.4,0,0,0,.968-.132V3.092A6.2,6.2,0,0,1,5.164,3.346Zm8.812,0a4.846,4.846,0,0,1-3.79-1.574A6.061,6.061,0,0,1,8.77-2.44a6.017,6.017,0,0,1,1.421-4.222,4.967,4.967,0,0,1,3.856-1.554A4.967,4.967,0,0,1,17.9-6.662a5.987,5.987,0,0,1,1.421,4.2A6.045,6.045,0,0,1,17.9,1.8,5.068,5.068,0,0,1,13.976,3.346Zm.031-1.508q3.189,0,3.189-4.3,0-4.248-3.148-4.248T10.909-2.44Q10.909,1.839,14.006,1.839Zm8.455,5.277V-7.971h2.007v2.078a3.962,3.962,0,0,1,3.7-2.323,3.781,3.781,0,0,1,3.143,1.457,6.28,6.28,0,0,1,1.146,3.983,7.073,7.073,0,0,1-1.3,4.436,4.108,4.108,0,0,1-3.418,1.686,4.143,4.143,0,0,1-3.27-1.508V7.115ZM24.468.453a4.558,4.558,0,0,0,2.954,1.385q2.893,0,2.893-4.411,0-3.891-2.567-3.891a4.47,4.47,0,0,0-3.28,1.823Z" transform="translate(-1632.059 4156.027)"/>
  </g>
</svg>
