<svg xmlns="http://www.w3.org/2000/svg" width="40" height="40" viewBox="0 0 40 40"><defs><style>.a{fill:#0060a7;}</style></defs><g transform="translate(0 0)"><path class="a" d="M38.333,18.333A1.667,1.667,0,0,0,36.667,20a16.667,16.667,0,1,1-4.84-11.743,1.667,1.667,0,1,0,2.365-2.349A20,20,0,1,0,40,20,1.667,1.667,0,0,0,38.333,18.333Z" transform="translate(0 0)"/></g><path class="a" d="M147.434,132.011a2.452,2.452,0,0,0-1.723-.709,2.419,2.419,0,0,0-1.723.709l-8.532,8.532-2.946-2.947a2.437,2.437,0,0,0-3.445,3.449l4.669,4.67a2.419,2.419,0,0,0,1.721.706h0a2.422,2.422,0,0,0,1.724-.708l10.256-10.255A2.44,2.44,0,0,0,147.434,132.011Z" transform="translate(-118.091 -118.783)"/></svg>