<svg xmlns="http://www.w3.org/2000/svg" width="210.854" height="210.707" viewBox="0 0 210.854 210.707">
  <g id="Group_12257" data-name="Group 12257" transform="translate(-407.146 -2505.646)">
    <path id="Path_51782" data-name="Path 51782" d="M210,0,0,210" transform="translate(407.5 2506)" fill="none" stroke="#838383" stroke-width="1"/>
    <text id="_1" data-name="1" transform="translate(457.247 2586)" font-size="80" font-family="ArialMT, Arial"><tspan x="0" y="0">1</tspan></text>
    <g id="Group_2487" data-name="Group 2487" transform="translate(-976 -10.849)">
      <path id="Path_51783" data-name="Path 51783" d="M51.5,0A51.5,51.5,0,1,1,0,51.5,51.5,51.5,0,0,1,51.5,0Z" transform="translate(1491 2609)" fill="#ceeeff"/>
      <circle id="Ellipse_207" data-name="Ellipse 207" cx="40.5" cy="40.5" r="40.5" transform="translate(1502 2620)" fill="#006cbc"/>
    </g>
    <g id="web-development" transform="translate(543.374 2625.462)">
      <path id="Path_51720" data-name="Path 51720" d="M41.275,1H3.977A3.982,3.982,0,0,0,0,4.977V42.1a3.982,3.982,0,0,0,3.977,3.977h37.3A3.982,3.982,0,0,0,45.252,42.1V4.977A3.982,3.982,0,0,0,41.275,1ZM3.977,3.651h37.3A1.327,1.327,0,0,1,42.6,4.977v6.629H2.651V4.977A1.327,1.327,0,0,1,3.977,3.651Zm37.3,39.772H3.977A1.327,1.327,0,0,1,2.651,42.1V14.257H42.6V42.1A1.327,1.327,0,0,1,41.275,43.424Z" fill="#fff"/>
      <path id="Path_51721" data-name="Path 51721" d="M205.8,196.1a1.326,1.326,0,0,0-1.741.7l-7.954,18.56a1.326,1.326,0,0,0,2.437,1.045l7.954-18.56A1.326,1.326,0,0,0,205.8,196.1Z" transform="translate(-178.673 -177.762)" fill="#fff"/>
      <path id="Path_51722" data-name="Path 51722" d="M84.993,241.5a1.326,1.326,0,0,0-1.863-.207l-6.629,5.3a1.326,1.326,0,0,0,0,2.07l6.629,5.3a1.326,1.326,0,1,0,1.656-2.07l-5.335-4.268,5.335-4.268A1.326,1.326,0,0,0,84.993,241.5Z" transform="translate(-69.286 -218.787)" fill="#fff"/>
      <path id="Path_51723" data-name="Path 51723" d="M339.782,246.592l-6.629-5.3a1.326,1.326,0,1,0-1.656,2.07l5.335,4.268L331.5,251.9a1.326,1.326,0,1,0,1.656,2.07l6.629-5.3A1.326,1.326,0,0,0,339.782,246.592Z" transform="translate(-301.745 -218.787)" fill="#fff"/>
      <circle id="Ellipse_860" data-name="Ellipse 860" cx="1" cy="1" r="1" transform="translate(5.626 6.538)" fill="#fff"/>
      <ellipse id="Ellipse_861" data-name="Ellipse 861" cx="1.5" cy="1" rx="1.5" ry="1" transform="translate(10.626 6.538)" fill="#fff"/>
      <ellipse id="Ellipse_862" data-name="Ellipse 862" cx="1.5" cy="1" rx="1.5" ry="1" transform="translate(15.626 6.538)" fill="#fff"/>
      <path id="Path_51724" data-name="Path 51724" d="M332.326,63.651h7.954a1.326,1.326,0,0,0,0-2.651h-7.954a1.326,1.326,0,1,0,0,2.651Z" transform="translate(-301.745 -54.697)" fill="#fff"/>
    </g>
  </g>
</svg>
