<svg xmlns="http://www.w3.org/2000/svg" width="50.031" height="37.129" viewBox="0 0 50.031 37.129">
  <path id="right-arrow" d="M31.894.5A4.942,4.942,0,0,0,30,.877a4.877,4.877,0,0,0-3.029,4.515V9.6a1.955,1.955,0,1,0,3.909,0v-4.2a.953.953,0,0,1,.615-.9.97.97,0,0,1,1.093.208l12.964,12.98a1.964,1.964,0,0,1,0,2.773L32.588,33.43a.97.97,0,0,1-1.092.209.954.954,0,0,1-.615-.9V20.921a3.913,3.913,0,0,0-3.909-3.909H1.954a1.955,1.955,0,0,0,0,3.909H26.972V32.735a4.913,4.913,0,0,0,8.382,3.457L48.318,23.213a5.88,5.88,0,0,0,0-8.3L35.354,1.935A4.883,4.883,0,0,0,31.894.5Zm0,0" transform="translate(0 -0.499)" fill="#2789d1"/>
</svg>
