<svg xmlns="http://www.w3.org/2000/svg" width="210.854" height="210.707" viewBox="0 0 210.854 210.707">
  <g id="Group_12259" data-name="Group 12259" transform="translate(-910.146 -2505.646)">
    <path id="Path_51782" data-name="Path 51782" d="M210,0,0,210" transform="translate(910.5 2506)" fill="none" stroke="#838383" stroke-width="1"/>
    <text id="_2" data-name="2" transform="translate(960.247 2586)" font-size="80" font-family="ArialMT, Arial"><tspan x="0" y="0">2</tspan></text>
    <g id="Group_2487" data-name="Group 2487" transform="translate(-473 -10.849)">
      <path id="Path_51783" data-name="Path 51783" d="M51.5,0A51.5,51.5,0,1,1,0,51.5,51.5,51.5,0,0,1,51.5,0Z" transform="translate(1491 2609)" fill="#ceeeff"/>
      <circle id="Ellipse_207" data-name="Ellipse 207" cx="40.5" cy="40.5" r="40.5" transform="translate(1502 2620)" fill="#006cbc"/>
      <g id="Page-1" transform="translate(1518.61 2637.459)">
        <g id="_008---AR-Visor" data-name="008---AR-Visor" transform="translate(0)">
          <path id="Shape" d="M19.643,19.624a.78.78,0,0,0-.922-.606,4.768,4.768,0,0,0-2.513,1.4A.78.78,0,0,0,16,20.95v1.17a.78.78,0,0,0,1.559,0v-.842a3.229,3.229,0,0,1,1.481-.734.78.78,0,0,0,.6-.919Z" transform="translate(-3.525 -4.187)" fill="#fff"/>
          <path id="Shape-2" data-name="Shape" d="M.78,8.576a.78.78,0,0,0,.78-.78V2.339a.78.78,0,0,1,.78-.78H7.8A.78.78,0,0,0,7.8,0H2.339A2.339,2.339,0,0,0,0,2.339V7.8A.78.78,0,0,0,.78,8.576Z" transform="translate(0)" fill="#fff"/>
          <path id="Shape-3" data-name="Shape" d="M55.237,0H49.78a.78.78,0,1,0,0,1.559h5.458a.78.78,0,0,1,.78.78V7.8a.78.78,0,0,0,1.559,0V2.339A2.339,2.339,0,0,0,55.237,0Z" transform="translate(-10.796)" fill="#fff"/>
          <path id="Shape-4" data-name="Shape" d="M2.339,45.576H7.8a.78.78,0,0,0,0-1.559H2.339a.78.78,0,0,1-.78-.78V37.78A.78.78,0,0,0,0,37.78v5.458A2.339,2.339,0,0,0,2.339,45.576Z" transform="translate(0 -8.152)" fill="#fff"/>
          <path id="Shape-5" data-name="Shape" d="M56.8,37a.78.78,0,0,0-.78.78v5.458a.78.78,0,0,1-.78.78H49.78a.78.78,0,1,0,0,1.559h5.458a2.339,2.339,0,0,0,2.339-2.339V37.78A.78.78,0,0,0,56.8,37Z" transform="translate(-10.796 -8.152)" fill="#fff"/>
          <path id="Shape-6" data-name="Shape" d="M4.78,5.559h.78A.78.78,0,1,0,5.559,4H4.78a.78.78,0,0,0,0,1.559Z" transform="translate(-0.881 -0.881)" fill="#fff"/>
          <path id="Shape-7" data-name="Shape" d="M9,4.78a.78.78,0,0,0,.78.78H12.9A.78.78,0,1,0,12.9,4H9.78A.78.78,0,0,0,9,4.78Z" transform="translate(-1.983 -0.881)" fill="#fff"/>
          <path id="Shape-8" data-name="Shape" d="M10.237,8.78A.78.78,0,0,0,9.458,8H4.78a.78.78,0,0,0,0,1.559H9.458A.78.78,0,0,0,10.237,8.78Z" transform="translate(-0.881 -1.763)" fill="#fff"/>
          <path id="Shape-9" data-name="Shape" d="M54.559,5.559a.78.78,0,0,0,0-1.559h-.78a.78.78,0,0,0,0,1.559Z" transform="translate(-11.678 -0.881)" fill="#fff"/>
          <path id="Shape-10" data-name="Shape" d="M45.78,5.559H48.9A.78.78,0,0,0,48.9,4H45.78a.78.78,0,0,0,0,1.559Z" transform="translate(-9.915 -0.881)" fill="#fff"/>
          <path id="Shape-11" data-name="Shape" d="M48,8.78a.78.78,0,0,0,.78.78h4.678a.78.78,0,0,0,0-1.559H48.78A.78.78,0,0,0,48,8.78Z" transform="translate(-10.576 -1.763)" fill="#fff"/>
          <path id="Shape-12" data-name="Shape" d="M4.78,42a.78.78,0,1,0,0,1.559h.78a.78.78,0,1,0,0-1.559Z" transform="translate(-0.881 -9.254)" fill="#fff"/>
          <path id="Shape-13" data-name="Shape" d="M9,42.78a.78.78,0,0,0,.78.78H12.9A.78.78,0,1,0,12.9,42H9.78A.78.78,0,0,0,9,42.78Z" transform="translate(-1.983 -9.254)" fill="#fff"/>
          <path id="Shape-14" data-name="Shape" d="M9.458,38H4.78a.78.78,0,0,0,0,1.559H9.458a.78.78,0,0,0,0-1.559Z" transform="translate(-0.881 -8.373)" fill="#fff"/>
          <path id="Shape-15" data-name="Shape" d="M54.559,42h-.78a.78.78,0,0,0,0,1.559h.78a.78.78,0,1,0,0-1.559Z" transform="translate(-11.678 -9.254)" fill="#fff"/>
          <path id="Shape-16" data-name="Shape" d="M45.78,42a.78.78,0,1,0,0,1.559H48.9A.78.78,0,1,0,48.9,42Z" transform="translate(-9.915 -9.254)" fill="#fff"/>
          <path id="Shape-17" data-name="Shape" d="M53.458,38H48.78a.78.78,0,0,0,0,1.559h4.678a.78.78,0,0,0,0-1.559Z" transform="translate(-10.576 -8.373)" fill="#fff"/>
          <path id="Shape-18" data-name="Shape" d="M43.413,42.474a46.509,46.509,0,0,1-12.259-3.342,14.711,14.711,0,0,1-.22-3.866,14.435,14.435,0,0,0,3.371-8.877c0-.112.01-.222.014-.334,2.486-.9,3.654-4.138,3.292-9.245a4.22,4.22,0,0,0-1.862-3.286c-.187-.119-.377-.225-.566-.335-.007-.161-.013-.321-.021-.486-.426-9.138-10.846-9.7-10.985-9.7H22.568c-.1,0-10.526.565-10.95,9.7-.008.168-.014.327-.021.49-.189.111-.38.216-.566.334a4.223,4.223,0,0,0-1.862,3.288c-.362,5.108.805,8.348,3.292,9.246,0,.115.014.225.014.343a14.424,14.424,0,0,0,3.371,8.869,14.647,14.647,0,0,1-.221,3.864A46.331,46.331,0,0,1,3.367,42.474,3.91,3.91,0,0,0,0,46.333v.328a.78.78,0,0,0,.78.78H46a.78.78,0,0,0,.78-.78v-.328a3.91,3.91,0,0,0-3.367-3.859ZM22.6,4.559h1.54c.364.017,8.754.5,9.425,7.775A26.684,26.684,0,0,0,23.39,10.017a26.693,26.693,0,0,0-10.178,2.316c.666-7.279,9.061-7.757,9.39-7.773ZM10.724,16.92a2.665,2.665,0,0,1,1.145-2.082c5.05-3.215,11.457-3.261,11.521-3.261a24.385,24.385,0,0,1,11.521,3.262,2.663,2.663,0,0,1,1.145,2.082c.156,2.164.2,7.251-2.673,7.784a6.209,6.209,0,0,1-6.206-2.227,4.46,4.46,0,0,0-7.575,0A6.2,6.2,0,0,1,13.4,24.706c-2.871-.531-2.826-5.621-2.673-7.786Zm3.31,9.442a7.7,7.7,0,0,0,6.884-3.041.986.986,0,0,0,.061-.108,2.592,2.592,0,0,1,2.411-1.278A2.593,2.593,0,0,1,25.8,23.2a.779.779,0,0,0,.065.117,7.68,7.68,0,0,0,6.168,3.07c.234,0,.472-.012.716-.033A13.275,13.275,0,0,1,24.4,38.13a2.013,2.013,0,0,1-2.012,0,13.282,13.282,0,0,1-8.349-11.768ZM1.6,45.882a2.348,2.348,0,0,1,1.975-1.863,52.516,52.516,0,0,0,5.3-1,10.225,10.225,0,0,0,1.616,2.865Zm32.447,0H12.729A7.523,7.523,0,0,1,10.39,42.62c1.746-.483,3.177-.977,4.232-1.384a3.953,3.953,0,0,1-1,.858.78.78,0,1,0,.808,1.335c2.519-1.523,2.958-4.28,2.992-6.517a13.8,13.8,0,0,0,4.9,2.861,3.148,3.148,0,0,0,2.111,0,13.807,13.807,0,0,0,4.9-2.86c.034,2.238.473,4.994,2.992,6.517a.78.78,0,0,0,.808-1.335,3.953,3.953,0,0,1-1-.858c1.055.407,2.486.9,4.232,1.384A7.523,7.523,0,0,1,34.051,45.882Zm2.238,0a10.225,10.225,0,0,0,1.616-2.865,52.516,52.516,0,0,0,5.3,1,2.348,2.348,0,0,1,1.975,1.863Z" transform="translate(0 -0.661)" fill="#fff"/>
        </g>
      </g>
    </g>
  </g>
</svg>
