<svg xmlns="http://www.w3.org/2000/svg" width="210.854" height="210.707" viewBox="0 0 210.854 210.707">
  <g id="Group_12260" data-name="Group 12260" transform="translate(-1383.146 -2842.646)">
    <path id="Path_51782" data-name="Path 51782" d="M210,0,0,210" transform="translate(1383.5 2843)" fill="none" stroke="#838383" stroke-width="1"/>
    <text id="_6" data-name="6" transform="translate(1433.247 2923)" font-size="80" font-family="ArialMT, Arial"><tspan x="0" y="0">6</tspan></text>
    <g id="Group_2487" data-name="Group 2487" transform="translate(0 326.151)">
      <path id="Path_51783" data-name="Path 51783" d="M51.5,0A51.5,51.5,0,1,1,0,51.5,51.5,51.5,0,0,1,51.5,0Z" transform="translate(1491 2609)" fill="#ceeeff"/>
      <circle id="Ellipse_207" data-name="Ellipse 207" cx="40.5" cy="40.5" r="40.5" transform="translate(1502 2620)" fill="#006cbc"/>
    </g>
    <g id="big-data_1_" data-name="big-data (1)" transform="translate(1518.54 2959.543)">
      <path id="Path_51728" data-name="Path 51728" d="M125.333,8.171,111.412.134a1,1,0,0,0-.994,0L96.5,8.171a1,1,0,0,0-.5.861V16.2a1,1,0,0,0,.5.861l3.416,1.972L96.5,21.01a.994.994,0,0,0-.5.861v7.171a1,1,0,0,0,.5.861l3.416,1.972L96.5,33.848a1,1,0,0,0-.5.861V41.88a1,1,0,0,0,.5.861l13.921,8.037a.994.994,0,0,0,.994,0l13.921-8.037a1,1,0,0,0,.5-.861V34.709a1,1,0,0,0-.5-.861l-3.417-1.972,3.417-1.973a1,1,0,0,0,.5-.861V21.87a.994.994,0,0,0-.5-.861l-3.416-1.973,3.416-1.973a.994.994,0,0,0,.5-.861V9.033A1,1,0,0,0,125.333,8.171ZM110.915,2.143l11.932,6.889-11.932,6.889L98.983,9.033ZM97.989,10.754l11.932,6.889v4.874L97.989,15.629Zm0,12.838,11.932,6.889v4.874L97.989,28.467Zm0,12.838,11.932,6.889v4.875L97.989,41.305Zm13.921,11.763V43.32l11.932-6.889v4.875Zm10.938-13.486L110.915,41.6,98.983,34.709l2.919-1.686,8.516,4.917a.994.994,0,0,0,.994,0l8.515-4.916Zm-10.938.647V30.482l11.932-6.889v4.874ZM122.847,21.87,110.915,28.76,98.983,21.87l2.919-1.685,8.516,4.916a.994.994,0,0,0,.994,0l8.516-4.916Zm-10.938.648V17.644l11.932-6.889v4.874Zm0,0" transform="translate(-86.454 0)" fill="#fff"/>
      <path id="Path_51729" data-name="Path 51729" d="M448.994,259.891a.995.995,0,1,0,.7.291A1,1,0,0,0,448.994,259.891Zm0,0" transform="translate(-403.454 -234.048)" fill="#fff"/>
      <path id="Path_51730" data-name="Path 51730" d="M430.761,73.877a3.381,3.381,0,1,0-4.375,3.232v8.739a.994.994,0,1,0,1.989,0V77.108A3.387,3.387,0,0,0,430.761,73.877Zm-3.381,1.392a1.392,1.392,0,1,1,1.392-1.392A1.394,1.394,0,0,1,427.381,75.269Zm0,0" transform="translate(-381.84 -63.486)" fill="#fff"/>
      <path id="Path_51731" data-name="Path 51731" d="M24.994,454.871a.994.994,0,0,0-.994.994v3.692a.994.994,0,0,0,1.989,0v-3.692A.994.994,0,0,0,24.994,454.871Zm0,0" transform="translate(-21.614 -409.641)" fill="#fff"/>
      <path id="Path_51732" data-name="Path 51732" d="M3.381,265.48a3.381,3.381,0,0,0-.994,6.612v8.248a.994.994,0,1,0,1.989,0v-8.248a3.381,3.381,0,0,0-.994-6.612Zm0,4.773a1.392,1.392,0,1,1,1.392-1.392A1.394,1.394,0,0,1,3.381,270.253Zm0,0" transform="translate(0 -239.082)" fill="#fff"/>
    </g>
  </g>
</svg>
