<svg xmlns="http://www.w3.org/2000/svg" width="210.854" height="210.707" viewBox="0 0 210.854 210.707">
  <g id="Group_12262" data-name="Group 12262" transform="translate(-910.146 -2842.646)">
    <path id="Path_51782" data-name="Path 51782" d="M210,0,0,210" transform="translate(910.5 2843)" fill="none" stroke="#838383" stroke-width="1"/>
    <text id="_5" data-name="5" transform="translate(960.247 2923)" font-size="80" font-family="ArialMT, Arial"><tspan x="0" y="0">5</tspan></text>
    <g id="Group_2487" data-name="Group 2487" transform="translate(-473 326.151)">
      <path id="Path_51783" data-name="Path 51783" d="M51.5,0A51.5,51.5,0,1,1,0,51.5,51.5,51.5,0,0,1,51.5,0Z" transform="translate(1491 2609)" fill="#ceeeff"/>
      <circle id="Ellipse_207" data-name="Ellipse 207" cx="40.5" cy="40.5" r="40.5" transform="translate(1502 2620)" fill="#006cbc"/>
    </g>
    <g id="Group_11998" data-name="Group 11998" transform="translate(359 4764)">
      <g id="Group_11997" data-name="Group 11997" transform="translate(-2.455 -1.953)">
        <path id="Path_51726" data-name="Path 51726" d="M380.159,437.688a1.029,1.029,0,1,0,1.455,1.455l0,0a1.029,1.029,0,0,0-1.458-1.452Z" transform="translate(343.295 -2198.912)" fill="#fff"/>
        <path id="Path_51727" data-name="Path 51727" d="M62.192,333.4,54.025,337.6a3.793,3.793,0,0,0-2.736-1.164h-5.6a1.543,1.543,0,0,1-.4-.027,3.017,3.017,0,0,1-.3-.267l-.051-.048c-4.527-4.262-8.352-3.992-12.7-2.275a2.96,2.96,0,0,1-1.424.309H29.553a2.736,2.736,0,0,0-2.593-1.875H22.845a2.733,2.733,0,0,0-2.729,2.732v10.8a2.732,2.732,0,0,0,2.729,2.729H26.96a2.736,2.736,0,0,0,2.593-1.872h2.315a1.1,1.1,0,0,1,.442.067c.086.024.192.054.327.091l10.647,2.848c.469.127.9.252,1.316.372a13.42,13.42,0,0,0,3.706.728,8.134,8.134,0,0,0,4.621-1.662l.027-.018,2.033-1.449a1.029,1.029,0,1,0-1.195-1.675l-2.019,1.44c-2.7,1.793-3.841,1.462-6.6.662-.425-.123-.865-.25-1.354-.383L33.17,344.811l-.3-.084a2.866,2.866,0,0,0-1-.144H29.691v-8.4h1.156l.059,0a4.822,4.822,0,0,0,2.091-.45c3.82-1.507,6.768-1.686,10.537,1.861l.051.048a2.491,2.491,0,0,0,2.108.852h5.6a1.748,1.748,0,0,1,1.528.9l.01.018a1.744,1.744,0,0,1-1.538,2.573H42.22a1.029,1.029,0,1,0,0,2.058h9.069A3.8,3.8,0,0,0,55,339.411l8.13-4.175a1.655,1.655,0,1,1,1.753,2.8l-3.566,2.54a1.029,1.029,0,1,0,1.193,1.676l3.567-2.54a3.707,3.707,0,0,0-3.887-6.311ZM27.634,345.784a.682.682,0,0,1-.674.671H22.845a.68.68,0,0,1-.671-.671v-10.8a.674.674,0,0,1,.671-.674H26.96a.683.683,0,0,1,.674.674Z" transform="translate(669.013 -2104.594)" fill="#fff"/>
      </g>
      <g id="Group_11995" data-name="Group 11995" transform="translate(-70.254 58.4)">
        <path id="Path_52152" data-name="Path 52152" d="M45.176,38.271a1.668,1.668,0,0,0-1.668,1.668v7.84a1.668,1.668,0,1,0,3.336,0V39.94A1.668,1.668,0,0,0,45.176,38.271ZM38.5,40.19a1.668,1.668,0,0,0-1.668,1.668V47.78a1.668,1.668,0,1,0,3.336,0V41.858A1.668,1.668,0,0,0,38.5,40.19ZM31.83,43.86a1.668,1.668,0,0,0-1.668,1.668V47.78a1.668,1.668,0,1,0,3.336,0V45.528A1.668,1.668,0,0,0,31.83,43.86Zm-6.673-1.418a1.668,1.668,0,0,0-1.668,1.668v3.67a1.668,1.668,0,1,0,3.336,0V44.11A1.668,1.668,0,0,0,25.157,42.442Z" transform="translate(748.317 -1884.791)" fill="#fff"/>
        <path id="Path_52153" data-name="Path 52153" d="M83.259,229.69a1.668,1.668,0,0,1-1.176-2.852l9.672-9.607.06-.057a5.824,5.824,0,0,1,7.5-.259l.14.1.05.038a2.507,2.507,0,0,0,3.412-.289l.024-.026,5.91-6.293a1.668,1.668,0,0,1,2.432,2.284l-5.9,6.281a5.85,5.85,0,0,1-7.922.68l-.141-.1-.05-.038a2.5,2.5,0,0,0-3.2.078l-9.639,9.574A1.663,1.663,0,0,1,83.259,229.69Zm34.232-16.181V209a5.01,5.01,0,0,0-5-5h-4.5a1.668,1.668,0,1,0,0,3.336h4.5A1.67,1.67,0,0,1,114.155,209v4.5a1.668,1.668,0,0,0,3.336,0Z" transform="translate(677.67 -2065.033)" fill="#fff"/>
      </g>
    </g>
  </g>
</svg>
