<svg xmlns="http://www.w3.org/2000/svg" width="210.854" height="210.707" viewBox="0 0 210.854 210.707">
  <g id="Group_12261" data-name="Group 12261" transform="translate(-407.146 -2842.646)">
    <path id="Path_51782" data-name="Path 51782" d="M210,0,0,210" transform="translate(407.5 2843)" fill="none" stroke="#838383" stroke-width="1"/>
    <text id="_4" data-name="4" transform="translate(457.247 2923)" font-size="80" font-family="ArialMT, Arial"><tspan x="0" y="0">4</tspan></text>
    <g id="Group_2487" data-name="Group 2487" transform="translate(-976 326.151)">
      <path id="Path_51783" data-name="Path 51783" d="M51.5,0A51.5,51.5,0,1,1,0,51.5,51.5,51.5,0,0,1,51.5,0Z" transform="translate(1491 2609)" fill="#ceeeff"/>
      <circle id="Ellipse_207" data-name="Ellipse 207" cx="40.5" cy="40.5" r="40.5" transform="translate(1502 2620)" fill="#006cbc"/>
      <g id="paint-palette" transform="translate(1514.797 2634.849)">
        <g id="Group_8513" data-name="Group 8513" transform="translate(33.737 22.045)">
          <g id="Group_8512" data-name="Group 8512">
            <circle id="Ellipse_863" data-name="Ellipse 863" cx="0.975" cy="0.975" r="0.975" fill="#fff"/>
          </g>
        </g>
        <g id="Group_8515" data-name="Group 8515" transform="translate(20.117 27.189)">
          <g id="Group_8514" data-name="Group 8514">
            <path id="Path_51733" data-name="Path 51733" d="M203.055,278.749a.976.976,0,0,0-1.108.822c-.267,1.8-1.788,3.293-4.07,3.994-2.439.749-5.825.5-7.89-1.751a.975.975,0,1,0-1.437,1.319,8.6,8.6,0,0,0,4.7,2.566,10.4,10.4,0,0,0,2.042.2,10.835,10.835,0,0,0,3.162-.469c3.019-.927,5.048-3.01,5.427-5.573A.975.975,0,0,0,203.055,278.749Z" transform="translate(-188.293 -278.738)" fill="#fff"/>
          </g>
        </g>
        <g id="Group_8517" data-name="Group 8517" transform="translate(0.94)">
          <g id="Group_8516" data-name="Group 8516">
            <path id="Path_51734" data-name="Path 51734" d="M48.437,18.573a12.077,12.077,0,0,0-7.165-3.923A55.34,55.34,0,0,0,48.258,9.2c2.644-2.52,3.531-4.29,2.791-5.572-.824-1.427-3.2-1.418-7.485.031A74.907,74.907,0,0,0,30.871,9.647c-.789.455-1.57.922-2.335,1.391a5.239,5.239,0,0,1,1.058-5.017,3.728,3.728,0,0,0,.546-3.938A3.94,3.94,0,0,0,26.445,0H26.4A24.211,24.211,0,0,0,10.01,6.611,24.583,24.583,0,0,0,2.039,22.523,25.054,25.054,0,0,0,26.91,49.942a26.611,26.611,0,0,0,10.446-2.036,23.506,23.506,0,0,0,7.693-5.243,23.17,23.17,0,0,0,4.758-7.119A20.644,20.644,0,0,0,51.5,27.837,13.6,13.6,0,0,0,48.437,18.573ZM28.65,13.265c1.032-.651,2.108-1.3,3.2-1.928A75.2,75.2,0,0,1,43.685,5.682c3.756-1.33,5.294-1.243,5.653-1.072-.031.227-.313,1.237-2.778,3.507A62.064,62.064,0,0,1,38.1,14.395c-1.075.681-2.193,1.357-3.324,2.01-1.559.9-3.117,1.741-4.646,2.512a14.614,14.614,0,0,0-2.766-4.822Q27.995,13.678,28.65,13.265Zm-.291,6.517a50.019,50.019,0,0,1-7.3,2.88,4.867,4.867,0,0,0-1.472-2.594,50.16,50.16,0,0,1,6.142-4.876,12.717,12.717,0,0,1,2.63,4.591ZM49.55,27.809c-.139,9.706-8.835,20.182-22.641,20.182A23.1,23.1,0,0,1,3.983,22.69C4.968,11.254,15.024,1.951,26.4,1.951h.044a2.023,2.023,0,0,1,1.942.982,1.777,1.777,0,0,1-.322,1.881,7.16,7.16,0,0,0-1.206,7.281c-.523.337-1.037.675-1.533,1.011l-.007,0a51.957,51.957,0,0,0-7.464,5.927,4.851,4.851,0,0,0-4.008.392c-2.027,1.171-4.687,6.626-5.2,7.707a.975.975,0,0,0,.8,1.39c.539.044,2.07.154,3.774.154,2.068,0,4.39-.163,5.5-.8a4.866,4.866,0,0,0,2.327-3.19,51.6,51.6,0,0,0,8.9-3.505c1.9-.923,3.847-1.962,5.8-3.087.989-.571,1.968-1.16,2.918-1.755h.017C46.814,16.574,49.628,22.418,49.55,27.809ZM19.2,23.836a2.922,2.922,0,0,1-1.458,2.351c-.922.533-4.091.6-6.693.486,1.2-2.312,2.844-5.021,3.767-5.554A2.927,2.927,0,0,1,19.2,23.836Z" transform="translate(-1.94)" fill="#fff"/>
          </g>
        </g>
        <g id="Group_8519" data-name="Group 8519" transform="translate(15.204 6.032)">
          <g id="Group_8518" data-name="Group 8518">
            <path id="Path_51735" data-name="Path 51735" d="M141.824,61.84a3.9,3.9,0,1,0,3.9,3.9A3.906,3.906,0,0,0,141.824,61.84Zm0,5.853a1.951,1.951,0,1,1,1.951-1.951A1.953,1.953,0,0,1,141.824,67.693Z" transform="translate(-137.922 -61.84)" fill="#fff"/>
          </g>
        </g>
        <g id="Group_8521" data-name="Group 8521" transform="translate(10.327 32.243)">
          <g id="Group_8520" data-name="Group 8520">
            <path id="Path_51736" data-name="Path 51736" d="M91.824,330.55a3.9,3.9,0,1,0,3.9,3.9A3.906,3.906,0,0,0,91.824,330.55Zm0,5.853a1.951,1.951,0,1,1,1.951-1.951A1.953,1.953,0,0,1,91.824,336.4Z" transform="translate(-87.922 -330.55)" fill="#fff"/>
          </g>
        </g>
        <g id="Group_8523" data-name="Group 8523" transform="translate(20.081 38.095)">
          <g id="Group_8522" data-name="Group 8522">
            <path id="Path_51737" data-name="Path 51737" d="M191.824,390.55a3.9,3.9,0,1,0,3.9,3.9A3.906,3.906,0,0,0,191.824,390.55Zm0,5.853a1.951,1.951,0,1,1,1.951-1.951A1.953,1.953,0,0,1,191.824,396.4Z" transform="translate(-187.922 -390.55)" fill="#fff"/>
          </g>
        </g>
        <g id="Group_8525" data-name="Group 8525" transform="translate(31.786 36.144)">
          <g id="Group_8524" data-name="Group 8524">
            <path id="Path_51738" data-name="Path 51738" d="M311.824,370.55a3.9,3.9,0,1,0,3.9,3.9A3.906,3.906,0,0,0,311.824,370.55Zm0,5.853a1.951,1.951,0,1,1,1.951-1.951A1.953,1.953,0,0,1,311.824,376.4Z" transform="translate(-307.922 -370.55)" fill="#fff"/>
          </g>
        </g>
        <g id="Group_8527" data-name="Group 8527" transform="translate(39.589 26.39)">
          <g id="Group_8526" data-name="Group 8526">
            <path id="Path_51739" data-name="Path 51739" d="M391.824,270.55a3.9,3.9,0,1,0,3.9,3.9A3.906,3.906,0,0,0,391.824,270.55Zm0,5.853a1.951,1.951,0,1,1,1.951-1.951A1.953,1.953,0,0,1,391.824,276.4Z" transform="translate(-387.922 -270.55)" fill="#fff"/>
          </g>
        </g>
      </g>
    </g>
  </g>
</svg>
