<svg xmlns="http://www.w3.org/2000/svg" width="50.031" height="37.129" viewBox="0 0 50.031 37.129">
  <path id="right-arrow" d="M31.894,37.628A4.942,4.942,0,0,1,30,37.25a4.877,4.877,0,0,1-3.029-4.515v-4.2a1.955,1.955,0,1,1,3.909,0v4.2a.953.953,0,0,0,.615.9.97.97,0,0,0,1.093-.208L45.552,20.45a1.964,1.964,0,0,0,0-2.773L32.588,4.7A.97.97,0,0,0,31.5,4.489a.954.954,0,0,0-.615.9V17.207a3.913,3.913,0,0,1-3.909,3.909H1.954a1.955,1.955,0,0,1,0-3.909H26.972V5.392a4.913,4.913,0,0,1,8.382-3.457L48.318,14.914a5.88,5.88,0,0,1,0,8.3L35.354,36.192A4.883,4.883,0,0,1,31.894,37.628Zm0,0" transform="translate(50.031 37.628) rotate(180)" fill="#2789d1"/>
</svg>
