<svg xmlns="http://www.w3.org/2000/svg" width="90" height="25" viewBox="0 0 90 25">
  <g id="up-arrow" transform="translate(90) rotate(90)">
    <path id="Path_51943" data-name="Path 51943" d="M15.578,89.087a1.805,1.805,0,0,1-3.138,0C7.358,79.655,2.726,70.07.036,59.725c-.3-1.521,1.345-3.043,2.69-2.13A34.46,34.46,0,0,1,10.5,65.354C9.9,44.055,7.059,22,11.991,1c.3-1.521,2.839-1.217,2.69.3-2.69,21.756-.6,43.359-.3,65.114,2.541-2.282,5.081-4.564,7.472-6.846a1.836,1.836,0,0,1,3.139,1.369A74.569,74.569,0,0,1,15.578,89.087Zm-1.644-18.1A1.872,1.872,0,0,1,10.5,69.918v-.3c-1.793-1.826-3.437-3.651-5.38-5.477a140.729,140.729,0,0,0,8.817,20.082A68.262,68.262,0,0,0,20.36,65.658c-1.644,1.521-3.437,3.043-5.081,4.716A1.1,1.1,0,0,1,13.934,70.983Z" transform="translate(0 0)" fill="#87b6c1"/>
  </g>
</svg>
