<svg id="Component_11_12" data-name="Component 11 – 12" xmlns="http://www.w3.org/2000/svg" width="105" height="90" viewBox="0 0 105 90">
  <g id="Group_8531" data-name="Group 8531" transform="translate(-1976.309 -1308.812)">
    <g id="Group_5821" data-name="Group 5821" transform="translate(2000.963 1317.13)">
      <path id="Path_50423" data-name="Path 50423" d="M2044.545,1372.13l-16.082-16.082-16.082,16.082-11.418-11.418,16.082-16.082-16.082-16.082,11.418-11.418,16.082,16.082,16.082-16.082,11.418,11.418-16.082,16.082,16.082,16.082Zm-41.751-11.418,9.587,9.586,16.082-16.082,16.082,16.082,9.586-9.586-16.082-16.082,16.082-16.082-9.586-9.586-16.082,16.082-16.082-16.082-9.587,9.586,16.082,16.082Z" transform="translate(-2000.963 -1317.13)" fill="#3984ba"/>
    </g>
    <g id="Group_5822" data-name="Group 5822" transform="translate(2051.199 1325.42)">
      <rect id="Rectangle_594" data-name="Rectangle 594" width="1.302" height="6.384" transform="translate(0)" fill="#3984ba"/>
    </g>
    <g id="Group_5823" data-name="Group 5823" transform="translate(2051.199 1357.456)">
      <rect id="Rectangle_595" data-name="Rectangle 595" width="1.302" height="6.456" transform="translate(0)" fill="#3984ba"/>
    </g>
    <g id="Group_5824" data-name="Group 5824" transform="translate(2047.515 1321.736)">
      <rect id="Rectangle_596" data-name="Rectangle 596" width="1.302" height="13.752" transform="translate(0)" fill="#3984ba"/>
    </g>
    <g id="Group_5825" data-name="Group 5825" transform="translate(2047.515 1353.772)">
      <rect id="Rectangle_597" data-name="Rectangle 597" width="1.302" height="13.824" transform="translate(0)" fill="#3984ba"/>
    </g>
    <g id="Group_5826" data-name="Group 5826" transform="translate(2043.893 1318.051)">
      <rect id="Rectangle_598" data-name="Rectangle 598" width="1.302" height="21.121" transform="translate(0)" fill="#3984ba"/>
    </g>
    <g id="Group_5827" data-name="Group 5827" transform="translate(2043.893 1350.209)">
      <rect id="Rectangle_599" data-name="Rectangle 599" width="1.302" height="21" transform="translate(0)" fill="#3984ba"/>
    </g>
    <g id="Group_5828" data-name="Group 5828" transform="translate(2040.23 1321.735)">
      <rect id="Rectangle_600" data-name="Rectangle 600" width="1.302" height="21.121" transform="translate(0 0)" fill="#3984ba"/>
    </g>
    <g id="Group_5829" data-name="Group 5829" transform="translate(2040.23 1346.404)">
      <rect id="Rectangle_601" data-name="Rectangle 601" width="1.302" height="21.122" transform="translate(0)" fill="#3984ba"/>
    </g>
    <g id="Group_5830" data-name="Group 5830" transform="translate(2036.567 1325.419)">
      <rect id="Rectangle_602" data-name="Rectangle 602" width="1.302" height="38.423" transform="translate(0)" fill="#3984ba"/>
    </g>
    <g id="Group_5831" data-name="Group 5831" transform="translate(2032.904 1328.948)">
      <rect id="Rectangle_603" data-name="Rectangle 603" width="1.302" height="31.484" transform="translate(0 0)" fill="#3984ba"/>
    </g>
    <g id="Group_5832" data-name="Group 5832" transform="translate(2029.24 1332.633)">
      <rect id="Rectangle_604" data-name="Rectangle 604" width="1.302" height="23.993" transform="translate(0)" fill="#3984ba"/>
    </g>
    <g id="Group_5833" data-name="Group 5833" transform="translate(2025.577 1331.942)">
      <rect id="Rectangle_605" data-name="Rectangle 605" width="1.302" height="25.495" transform="translate(0)" fill="#3984ba"/>
    </g>
    <g id="Group_5834" data-name="Group 5834" transform="translate(2021.914 1328.138)">
      <rect id="Rectangle_606" data-name="Rectangle 606" width="1.302" height="32.984" transform="translate(0)" fill="#3984ba"/>
    </g>
    <g id="Group_5835" data-name="Group 5835" transform="translate(2018.251 1324.452)">
      <rect id="Rectangle_607" data-name="Rectangle 607" width="1.302" height="40.2" transform="translate(0)" fill="#3984ba"/>
    </g>
    <g id="Group_5836" data-name="Group 5836" transform="translate(2014.588 1347.242)">
      <rect id="Rectangle_608" data-name="Rectangle 608" width="1.302" height="21.094" transform="translate(0 0)" fill="#3984ba"/>
    </g>
    <g id="Group_5837" data-name="Group 5837" transform="translate(2014.588 1320.769)">
      <rect id="Rectangle_609" data-name="Rectangle 609" width="1.302" height="21.275" transform="translate(0)" fill="#3984ba"/>
    </g>
    <g id="Group_5838" data-name="Group 5838" transform="translate(2010.925 1350.899)">
      <rect id="Rectangle_610" data-name="Rectangle 610" width="1.302" height="19.499" transform="translate(0)" fill="#3984ba"/>
    </g>
    <g id="Group_5839" data-name="Group 5839" transform="translate(2010.925 1318.862)">
      <rect id="Rectangle_611" data-name="Rectangle 611" width="1.302" height="19.497" transform="translate(0 0)" fill="#3984ba"/>
    </g>
    <g id="Group_5840" data-name="Group 5840" transform="translate(2007.298 1354.518)">
      <rect id="Rectangle_612" data-name="Rectangle 612" width="1.302" height="12.062" transform="translate(0 0)" fill="#3984ba"/>
    </g>
    <g id="Group_5841" data-name="Group 5841" transform="translate(2007.298 1322.546)">
      <rect id="Rectangle_613" data-name="Rectangle 613" width="1.302" height="12.129" transform="translate(0 0)" fill="#3984ba"/>
    </g>
    <g id="Group_5842" data-name="Group 5842" transform="translate(2003.614 1326.175)">
      <rect id="Rectangle_614" data-name="Rectangle 614" width="1.302" height="4.884" transform="translate(0 0)" fill="#3984ba"/>
    </g>
    <g id="Group_5843" data-name="Group 5843" transform="translate(2003.614 1358.166)">
      <rect id="Rectangle_615" data-name="Rectangle 615" width="1.302" height="4.787" transform="translate(0)" fill="#3984ba"/>
    </g>
  </g>
  <g id="Group_8532" data-name="Group 8532" transform="translate(-2017.5 -286.242)">
    <path id="Path_50181" data-name="Path 50181" d="M2109.529,371.924c-3.5,0-5.319-2.11-6.649-3.651-1.239-1.437-1.9-2.128-3.323-2.128s-2.082.691-3.322,2.128c-1.329,1.541-3.15,3.651-6.648,3.651s-5.319-2.11-6.648-3.651c-1.239-1.437-1.9-2.128-3.321-2.128s-2.082.691-3.322,2.128c-1.329,1.541-3.149,3.651-6.648,3.651s-5.319-2.11-6.648-3.651c-1.24-1.437-1.9-2.128-3.321-2.128s-2.082.691-3.321,2.128c-1.329,1.541-3.149,3.651-6.647,3.651s-5.319-2.11-6.647-3.651c-1.24-1.437-1.9-2.128-3.321-2.128s-2.081.691-3.32,2.128c-1.329,1.541-3.149,3.651-6.647,3.651s-5.319-2.11-6.647-3.651c-1.239-1.437-1.9-2.128-3.321-2.128v-4.393c3.5,0,5.319,2.11,6.648,3.651,1.239,1.437,1.9,2.128,3.321,2.128s2.081-.691,3.319-2.127c1.329-1.541,3.149-3.652,6.648-3.652s5.319,2.11,6.647,3.652c1.239,1.437,1.9,2.127,3.321,2.127s2.081-.691,3.321-2.128c1.329-1.541,3.149-3.651,6.648-3.651s5.318,2.11,6.648,3.651c1.24,1.437,1.9,2.128,3.321,2.128s2.082-.691,3.322-2.128c1.329-1.541,3.15-3.651,6.648-3.651s5.319,2.11,6.648,3.651c1.239,1.437,1.9,2.128,3.321,2.128s2.082-.691,3.322-2.128c1.329-1.541,3.149-3.651,6.648-3.651s5.32,2.11,6.649,3.651c1.24,1.437,1.9,2.128,3.322,2.128s2.083-.691,3.323-2.128c1.329-1.541,3.15-3.651,6.649-3.651v4.393c-1.423,0-2.082.691-3.323,2.128C2114.849,369.814,2113.028,371.924,2109.529,371.924Z" fill="#b4c9e5"/>
  </g>
  <rect id="Rectangle_827" data-name="Rectangle 827" width="105" height="90" fill="none"/>
</svg>
