<svg xmlns="http://www.w3.org/2000/svg" width="70" height="70" viewBox="0 0 70 70">
  <g id="Group_12150" data-name="Group 12150" transform="translate(9477 -4603)">
    <g id="Ellipse_335" data-name="Ellipse 335" transform="translate(-9477 4603)" fill="none" stroke="#fff" stroke-width="2">
      <circle cx="35" cy="35" r="35" stroke="none"/>
      <circle cx="35" cy="35" r="34" fill="none"/>
    </g>
    <path id="Exclusion_3" data-name="Exclusion 3" d="M39.944,31.444a5.673,5.673,0,0,1-5.43-4.774H19.837a5.675,5.675,0,0,1-5.43,4.774,5.675,5.675,0,0,1-5.431-4.774H6.071a1.506,1.506,0,0,1-1.445-1.556v-4.67H1.445a1.561,1.561,0,0,1,0-3.114H14.46a1.561,1.561,0,0,0-.005-3.113H1.445a1.561,1.561,0,0,1,0-3.113h8.733A1.508,1.508,0,0,0,11.62,9.547a1.307,1.307,0,0,0-1.445-1.453H2.891A1.506,1.506,0,0,1,1.445,6.538,1.506,1.506,0,0,1,2.891,4.982H4.626V1.557A1.506,1.506,0,0,1,6.071,0H32.283V9.34A1.506,1.506,0,0,0,33.728,10.9H44.862l.018,0a5.912,5.912,0,0,1,2.346.8,4.465,4.465,0,0,1,2.113,4.074v9.34a1.506,1.506,0,0,1-1.445,1.556h-2.52A5.676,5.676,0,0,1,39.944,31.444Zm.025-8.823a2.638,2.638,0,0,0-1.848.784,3.012,3.012,0,0,0,0,4.144,2.638,2.638,0,0,0,1.848.784,2.515,2.515,0,0,0,1.849-.838,3.015,3.015,0,0,0,0-4.037A2.515,2.515,0,0,0,39.968,22.622Zm-25.537,0a2.639,2.639,0,0,0-1.848.784,3.012,3.012,0,0,0,0,4.144,2.638,2.638,0,0,0,1.849.784,2.517,2.517,0,0,0,1.85-.838,3.016,3.016,0,0,0,0-4.037A2.516,2.516,0,0,0,14.431,22.622Zm5.423-6.657a.481.481,0,0,0-.258.075l-1.379.871a.485.485,0,0,0,0,.819l4.344,2.744a.485.485,0,0,0,.517,0l4.344-2.744a.485.485,0,0,0,0-.819l-1.379-.871a.485.485,0,1,0-.517.82l.729.461L22.82,19.49,19.384,17.32l.73-.461a.485.485,0,0,0-.26-.895ZM22.82,4a5.255,5.255,0,0,0-4.126,2.026,5.006,5.006,0,0,0-.731,4.845,12.332,12.332,0,0,0,1.9,3.217c.458.621.521.711,1.008,1.411.3.431.752,1.082,1.549,2.22a.485.485,0,0,0,.795,0c.786-1.123,1.24-1.775,1.54-2.207.508-.731.561-.807,1.016-1.424a12.3,12.3,0,0,0,1.9-3.217,5.006,5.006,0,0,0-.731-4.845A5.255,5.255,0,0,0,22.82,4Zm0,12.594h0l-.686-.984C21.1,14.126,21.1,14.126,20.7,13.584l-.053-.072a11.631,11.631,0,0,1-1.768-2.957,4.067,4.067,0,0,1,.581-3.936,4.247,4.247,0,0,1,6.72,0,4.069,4.069,0,0,1,.581,3.936A11.582,11.582,0,0,1,25,13.5l-.005.007-.056.076c-.4.54-.4.54-1.441,2.034l-.677.97Zm0-10.092a2.713,2.713,0,1,0,2.714,2.713A2.716,2.716,0,0,0,22.82,6.5Zm0,4.455a1.743,1.743,0,1,1,1.743-1.742A1.744,1.744,0,0,1,22.82,10.957ZM43.14,7.783H35.174V.313c4.146,1.036,5.775,3.512,7.965,7.469Z" transform="translate(-9467.67 4624.452)" fill="#fff"/>
  </g>
</svg>
