<svg xmlns="http://www.w3.org/2000/svg" width="70" height="70" viewBox="0 0 70 70">
  <g id="Group_12151" data-name="Group 12151" transform="translate(9632 -5382)">
    <g id="Ellipse_335" data-name="Ellipse 335" transform="translate(-9632 5382)" fill="none" stroke="#fff" stroke-width="2">
      <circle cx="35" cy="35" r="35" stroke="none"/>
      <circle cx="35" cy="35" r="34" fill="none"/>
    </g>
    <g id="Group_346" data-name="Group 346" transform="translate(-9610.614 5392.211)">
      <path id="Path_409" data-name="Path 409" d="M246.156,25.313a2.656,2.656,0,1,1,2.656-2.656A2.659,2.659,0,0,1,246.156,25.313Z" transform="translate(-231.103 -18.229)" fill="#fff"/>
      <g id="Group_345" data-name="Group 345" transform="translate(0 7.546)">
        <g id="Group_344" data-name="Group 344" transform="translate(23.022 1.308)">
          <path id="Path_410" data-name="Path 410" d="M366.855,100.2a1.328,1.328,0,0,0-1.292-.058l-2.062,1.031v7.4l2.062,1.031a1.328,1.328,0,0,0,1.922-1.188v-7.084A1.328,1.328,0,0,0,366.855,100.2Z" transform="translate(-363.5 -100)" fill="#fff"/>
        </g>
        <path id="Path_411" data-name="Path 411" d="M122.69,85.433a5.3,5.3,0,0,1-8.356-.1,6.186,6.186,0,0,1-9.361-.1,3.1,3.1,0,0,0-1.473,2.637v7.084a3.1,3.1,0,0,0,3.1,3.1h14.168a3.1,3.1,0,0,0,3.1-3.1V87.861A3.094,3.094,0,0,0,122.69,85.433Z" transform="translate(-103.5 -85.224)" fill="#fff"/>
      </g>
      <path id="Path_412" data-name="Path 412" d="M137.042,7.084a3.542,3.542,0,1,1,3.542-3.542A3.546,3.546,0,0,1,137.042,7.084Z" transform="translate(-130.844)" fill="#fff"/>
    </g>
    <path id="Path_413" data-name="Path 413" d="M58.633,292H24.985A3.989,3.989,0,0,0,21,295.985V307.5a3.989,3.989,0,0,0,3.985,3.985H58.633a3.989,3.989,0,0,0,3.985-3.985V295.985A3.989,3.989,0,0,0,58.633,292ZM31.047,307.488c-1.015.006-1.707.008-2.184.008a7.741,7.741,0,0,1-1.148-.027,1.328,1.328,0,0,1-1.1-1.309v-8.847a1.328,1.328,0,0,1,2.656,0v7.526c.531,0,1.164,0,1.765-.007h.008a1.328,1.328,0,0,1,.007,2.656Zm6.191-1.321a1.328,1.328,0,1,1-2.656,0v-8.855a1.328,1.328,0,0,1,2.656,0Zm11.1-8.42-2.891,8.7,0,.009a1.529,1.529,0,0,1-1.437,1.036H44a1.529,1.529,0,0,1-1.44-1.017l0-.009-3.027-8.722a1.328,1.328,0,0,1,2.51-.871l1.938,5.582,1.843-5.549a1.328,1.328,0,1,1,2.521.837Zm7.066,2.664a1.328,1.328,0,0,1,0,2.656H53.275v1.771h2.4a1.328,1.328,0,1,1,0,2.656H51.947a1.328,1.328,0,0,1-1.328-1.328v-8.855a1.328,1.328,0,0,1,1.328-1.328h3.731a1.328,1.328,0,1,1,0,2.656h-2.4v1.771Z" transform="translate(-9638.919 5126.066)" fill="#fff"/>
  </g>
</svg>
