<svg xmlns="http://www.w3.org/2000/svg" width="50" height="50" viewBox="0 0 50 50">
  <g id="Group_12144" data-name="Group 12144" transform="translate(-477 -3562)">
    <g id="presentation" transform="translate(486.085 3575.79)">
      <path id="Path_49964" data-name="Path 49964" d="M28.9,0H14.916a2.934,2.934,0,0,0-2.93,2.93V11.9l-2.6-1.291c-.088-.044-.177-.085-.267-.124a4.428,4.428,0,1,0-6.109.271A5.9,5.9,0,0,0,0,15.915v3A2.935,2.935,0,0,0,2,21.69V26.9a.933.933,0,0,0,.933.933H8.923a.933.933,0,0,0,.933-.933V16.425l2.986,1.493a2.558,2.558,0,0,0,3.393-1.07h3.343l-3.54,9.736a.933.933,0,0,0,1.753.637l3.772-10.373h.654l3.811,10.376a.933.933,0,0,0,1.751-.643L24.2,16.847h4.7a2.93,2.93,0,0,0,2.93-2.93V2.93A2.93,2.93,0,0,0,28.9,0ZM3.363,7.425A2.563,2.563,0,1,1,5.927,9.988,2.566,2.566,0,0,1,3.363,7.425ZM14.641,15.85l-.007.021a.69.69,0,0,1-.958.378L9.34,14.082a.933.933,0,0,0-1.349.834V25.97H3.863V20.909a.933.933,0,0,0-.933-.933,1.066,1.066,0,0,1-1.065-1.065v-3a4.062,4.062,0,0,1,4.062-4.062h.824a4.064,4.064,0,0,1,1.807.425l5.8,2.887A.559.559,0,0,1,14.641,15.85Zm15.324-1.933a1.058,1.058,0,0,1-.312.753,1.072,1.072,0,0,1-.754.312H16.437l0-.015,2.314-4.628A.933.933,0,1,0,17.079,9.5L15.1,13.452l-1.254-.624V2.93a1.066,1.066,0,0,1,1.065-1.065H28.9a1.071,1.071,0,0,1,.754.312,1.057,1.057,0,0,1,.311.753Zm0,0" fill="#fff"/>
      <path id="Path_49965" data-name="Path 49965" d="M267.987,64.266H258a.933.933,0,1,0,0,1.865h9.988a.933.933,0,1,0,0-1.865Zm0,0" transform="translate(-241.085 -60.27)" fill="#fff"/>
      <path id="Path_49966" data-name="Path 49966" d="M343.325,120.5h-4.994a.933.933,0,1,0,0,1.865h4.994a.933.933,0,0,0,0-1.865Zm0,0" transform="translate(-316.423 -113.009)" fill="#fff"/>
      <path id="Path_49967" data-name="Path 49967" d="M343.325,176.734h-4.994a.933.933,0,1,0,0,1.865h4.994a.933.933,0,0,0,0-1.865Zm0,0" transform="translate(-316.423 -165.747)" fill="#fff"/>
    </g>
    <circle id="Ellipse_883" data-name="Ellipse 883" cx="25" cy="25" r="25" transform="translate(477 3562)" fill="none"/>
  </g>
</svg>
