<svg xmlns="http://www.w3.org/2000/svg" width="50" height="50" viewBox="0 0 50 50">
  <g id="Group_12145" data-name="Group 12145" transform="translate(-361 -3562)">
    <path id="Exclusion_4" data-name="Exclusion 4" d="M32.621,27.375a4.741,4.741,0,0,1-4.434-4.156H16.2a4.743,4.743,0,0,1-4.434,4.156,4.742,4.742,0,0,1-4.435-4.156H4.958a1.278,1.278,0,0,1-1.18-1.355V17.8H1.18a1.369,1.369,0,0,1,0-2.711H11.809a1.278,1.278,0,0,0,1.181-1.355A1.281,1.281,0,0,0,11.8,12.378H1.18A1.278,1.278,0,0,1,0,11.023,1.279,1.279,0,0,1,1.18,9.667H8.312A1.28,1.28,0,0,0,9.49,8.312a1.1,1.1,0,0,0-1.18-1.265H2.361A1.279,1.279,0,0,1,1.18,5.692a1.278,1.278,0,0,1,1.18-1.355H3.778V1.356A1.279,1.279,0,0,1,4.958,0H26.365V8.132a1.278,1.278,0,0,0,1.18,1.355h9.093l.015,0a4.622,4.622,0,0,1,1.916.7,3.962,3.962,0,0,1,1.725,3.547v8.132a1.278,1.278,0,0,1-1.18,1.355H37.056A4.743,4.743,0,0,1,32.621,27.375Zm.02-7.681a2.091,2.091,0,0,0-1.509.683,2.749,2.749,0,0,0,0,3.608,2.091,2.091,0,0,0,1.509.683,2,2,0,0,0,1.51-.729,2.755,2.755,0,0,0,0-3.514A2,2,0,0,0,32.641,19.694Zm-20.856,0a2.092,2.092,0,0,0-1.51.683,2.749,2.749,0,0,0,0,3.608,2.091,2.091,0,0,0,1.51.683,2,2,0,0,0,1.511-.729,2.756,2.756,0,0,0,0-3.514A2,2,0,0,0,11.785,19.694Zm4.429-5.8a.375.375,0,0,0-.21.065l-1.126.758a.437.437,0,0,0,0,.713l3.548,2.389a.376.376,0,0,0,.423,0L22.4,15.435a.437.437,0,0,0,0-.713l-1.126-.758a.375.375,0,0,0-.21-.065.39.39,0,0,0-.336.2.439.439,0,0,0,.123.582l.6.4-2.806,1.89-2.806-1.89.6-.4a.439.439,0,0,0,.123-.582A.39.39,0,0,0,16.214,13.9ZM18.637,3.482a4.2,4.2,0,0,0-3.37,1.764,4.592,4.592,0,0,0-.6,4.218,10.911,10.911,0,0,0,1.555,2.8c.374.54.425.619.823,1.228.245.375.614.942,1.265,1.933a.382.382,0,0,0,.649,0c.642-.978,1.012-1.546,1.258-1.921.415-.637.458-.7.83-1.239a10.881,10.881,0,0,0,1.555-2.8,4.592,4.592,0,0,0-.6-4.218A4.2,4.2,0,0,0,18.637,3.482Zm0,10.964h0l-.56-.857c-.843-1.29-.843-1.29-1.171-1.762l-.044-.063a10.285,10.285,0,0,1-1.444-2.575,3.732,3.732,0,0,1,.475-3.426,3.34,3.34,0,0,1,5.488,0,3.734,3.734,0,0,1,.475,3.426,10.242,10.242,0,0,1-1.439,2.569l0,.006-.046.066c-.326.47-.326.47-1.177,1.771l-.553.845Zm0-8.786a2.3,2.3,0,0,0-2.215,2.362,2.22,2.22,0,1,0,4.431,0A2.3,2.3,0,0,0,18.637,5.66Zm0,3.879a1.474,1.474,0,0,1-1.423-1.517,1.426,1.426,0,1,1,2.847,0A1.474,1.474,0,0,1,18.637,9.539ZM35.231,6.776H28.725V.273c3.386.9,4.716,3.058,6.5,6.5Z" transform="translate(365.853 3574.589)" fill="#fff"/>
    <circle id="Ellipse_882" data-name="Ellipse 882" cx="25" cy="25" r="25" transform="translate(361 3562)" fill="none"/>
  </g>
</svg>
